<?xml version="1.0" encoding="iso-8859-1"?>
<!-- Generator: Adobe Illustrator 19.0.0, SVG Export Plug-In . SVG Version: 6.00 Build 0)  -->
<svg version="1.1" id="Capa_1" xmlns="http://www.w3.org/2000/svg" xmlns:xlink="http://www.w3.org/1999/xlink" x="0px" y="0px"
	 viewBox="0 0 512 512" style="enable-background:new 0 0 512 512;" xml:space="preserve">
<g>
	<path style="fill:#7F8C8D;" d="M397.241,79.448h-44.138c-4.875,0-8.828-3.952-8.828-8.828s3.952-8.828,8.828-8.828h44.138
		c4.875,0,8.828,3.952,8.828,8.828S402.117,79.448,397.241,79.448z"/>
	<rect x="150.069" y="17.655" style="fill:#67B9CC;" width="211.862" height="194.207"/>
	<path style="fill:#41767F;" d="M317.793,348.866v145.479c0,9.751-7.904,17.655-17.655,17.655h-88.276
		c-9.751,0-17.655-7.905-17.655-17.655V348.866H317.793z"/>
	<path style="fill:#67B9CC;" d="M379.586,264.828c0,53.629-55.331,97.103-123.586,97.103s-123.586-43.475-123.586-97.103V220.69
		h247.172V264.828z"/>
	<path style="fill:#BDC3C7;" d="M406.069,247.172c-0.029,9.739-7.916,17.627-17.655,17.655H123.586
		c-9.751,0-17.655-7.904-17.655-17.655s7.904-17.655,17.655-17.655c-9.751,0-17.655-7.904-17.655-17.655
		c0-9.751,7.904-17.655,17.655-17.655h264.828c9.751,0,17.655,7.904,17.655,17.655c0,9.751-7.905,17.655-17.655,17.655
		C398.153,229.546,406.04,237.434,406.069,247.172z"/>
	<path style="fill:#D1D4D1;" d="M123.586,229.517h264.828c9.751,0,17.655,7.904,17.655,17.655l0,0
		c0,9.751-7.905,17.655-17.655,17.655H123.586c-9.751,0-17.655-7.904-17.655-17.655l0,0
		C105.931,237.422,113.836,229.517,123.586,229.517z"/>
	<path style="fill:#BDC3C7;" d="M150.069,0h211.862c9.751,0,17.655,7.904,17.655,17.655l0,0c0,9.751-7.904,17.655-17.655,17.655
		H150.069c-9.751,0-17.655-7.904-17.655-17.655l0,0C132.414,7.904,140.318,0,150.069,0z"/>
</g>
<g>
</g>
<g>
</g>
<g>
</g>
<g>
</g>
<g>
</g>
<g>
</g>
<g>
</g>
<g>
</g>
<g>
</g>
<g>
</g>
<g>
</g>
<g>
</g>
<g>
</g>
<g>
</g>
<g>
</g>
</svg>
