<?xml version="1.0" encoding="iso-8859-1"?>
<!-- Generator: Adobe Illustrator 19.0.0, SVG Export Plug-In . SVG Version: 6.00 Build 0)  -->
<svg version="1.1" id="Capa_1" xmlns="http://www.w3.org/2000/svg" xmlns:xlink="http://www.w3.org/1999/xlink" x="0px" y="0px"
	 viewBox="0 0 512 512" style="enable-background:new 0 0 512 512;" xml:space="preserve">
<g>
	<rect x="35.31" y="313.379" style="fill:#805333;" width="441.379" height="141.241"/>
	<rect x="88.276" y="348.69" style="fill:#CB8252;" width="335.448" height="70.621"/>
	<g>
		<rect x="247.172" y="339.862" style="fill:#805333;" width="17.655" height="88.276"/>
		<path style="fill:#805333;" d="M185.379,392.828h-35.31c-4.875,0-8.828-3.952-8.828-8.828s3.952-8.828,8.828-8.828h35.31
			c4.875,0,8.828,3.952,8.828,8.828S190.255,392.828,185.379,392.828z"/>
		<path style="fill:#805333;" d="M361.931,392.828h-35.31c-4.875,0-8.828-3.952-8.828-8.828s3.952-8.828,8.828-8.828h35.31
			c4.875,0,8.828,3.952,8.828,8.828S366.806,392.828,361.931,392.828z"/>
	</g>
	<g>
		<path style="fill:#CB8252;" d="M17.655,207.448h35.31v256c0,4.875-3.952,8.828-8.828,8.828H26.483
			c-4.875,0-8.828-3.952-8.828-8.828V207.448z"/>
		<path style="fill:#CB8252;" d="M459.034,207.448h35.31v256c0,4.875-3.952,8.828-8.828,8.828h-17.655
			c-4.875,0-8.828-3.952-8.828-8.828V207.448z"/>
	</g>
	<path style="fill:#E4C05C;" d="M240.64,119.172c-13.881-16.66-26.454-34.368-37.606-52.966h-17.655
		c-3.191,17.552-2.801,35.568,1.148,52.966l-1.148,17.655h61.793L240.64,119.172z"/>
	<g>
		<path style="fill:#805333;" d="M194.207,75.034c-2.341,0.001-4.587-0.929-6.243-2.585c-1.656-1.656-2.585-3.901-2.585-6.243
			V48.552c0-4.875,3.952-8.828,8.828-8.828s8.828,3.952,8.828,8.828v17.655c0.001,2.341-0.929,4.587-2.585,6.243
			S196.548,75.035,194.207,75.034z"/>
		<path style="fill:#805333;" d="M298.647,88.452c-0.198,0-0.397-0.004-0.603-0.022c-4.864-0.328-8.542-4.536-8.215-9.401
			l1.5-22.246c0.121-2.35,1.19-4.551,2.963-6.098c1.773-1.548,4.097-2.31,6.442-2.113c4.864,0.328,8.542,4.536,8.215,9.401
			l-1.5,22.246C307.132,84.849,303.287,88.445,298.647,88.452z"/>
	</g>
	<path style="fill:#CC4B4C;" d="M324.855,119.172c1.202-4.31,1.796-8.767,1.766-13.241c0-17.037-7.945-30.897-17.655-30.897
		c-2.819,0.086-5.514,1.182-7.592,3.09c-3.269,2.737-8.03,2.737-11.299,0c-2.078-1.907-4.772-3.004-7.592-3.09
		c-9.71,0-17.655,13.859-17.655,30.897c-0.031,4.474,0.563,8.931,1.766,13.241l-1.766,17.655h61.793L324.855,119.172z"/>
	<path style="fill:#95A5A5;" d="M450.207,172.138c-10.711,0-20.368-6.452-24.467-16.348c-4.099-9.896-1.833-21.287,5.741-28.861
		c7.574-7.574,18.965-9.84,28.861-5.741s16.348,13.756,16.348,24.467C476.674,160.275,464.826,172.122,450.207,172.138z
		 M450.207,136.828c-4.875,0-8.828,3.952-8.828,8.828s3.952,8.828,8.828,8.828c4.875,0,8.828-3.952,8.828-8.828
		C459.03,140.782,455.08,136.832,450.207,136.828z"/>
	<path style="fill:#805333;" d="M17.655,189.793h476.69c9.751,0,17.655,7.904,17.655,17.655l0,0c0,9.751-7.905,17.655-17.655,17.655
		H17.655C7.904,225.103,0,217.199,0,207.448l0,0C0,197.698,7.904,189.793,17.655,189.793z"/>
	<path style="fill:#BDC3C7;" d="M379.586,119.172h61.793v44.138c0,14.626-11.857,26.483-26.483,26.483h-8.828
		c-14.626,0-26.483-11.857-26.483-26.483V119.172z"/>
	<path style="fill:#95A5A5;" d="M52.966,172.138c-10.711,0-20.368-6.452-24.467-16.348c-4.099-9.896-1.833-21.287,5.741-28.861
		s18.965-9.84,28.861-5.741s16.348,13.756,16.348,24.467C79.432,160.275,67.585,172.122,52.966,172.138z M52.966,136.828
		c-4.875,0-8.828,3.952-8.828,8.828s3.952,8.828,8.828,8.828s8.828-3.952,8.828-8.828C61.788,140.782,57.839,136.832,52.966,136.828
		z"/>
	<g>
		<path style="fill:#BDC3C7;" d="M344.276,119.172c0,39.003-39.522,70.621-88.276,70.621s-88.276-31.618-88.276-70.621H344.276z"/>
		<path style="fill:#BDC3C7;" d="M97.103,189.793h-8.828c-14.626,0-26.483-11.857-26.483-26.483v-44.138h61.793v44.138
			C123.586,177.936,111.729,189.793,97.103,189.793z"/>
	</g>
</g>
<g>
</g>
<g>
</g>
<g>
</g>
<g>
</g>
<g>
</g>
<g>
</g>
<g>
</g>
<g>
</g>
<g>
</g>
<g>
</g>
<g>
</g>
<g>
</g>
<g>
</g>
<g>
</g>
<g>
</g>
</svg>
