<?xml version="1.0" encoding="iso-8859-1"?>
<!-- Generator: Adobe Illustrator 19.0.0, SVG Export Plug-In . SVG Version: 6.00 Build 0)  -->
<svg version="1.1" id="Capa_1" xmlns="http://www.w3.org/2000/svg" xmlns:xlink="http://www.w3.org/1999/xlink" x="0px" y="0px"
	 viewBox="0 0 512 512" style="enable-background:new 0 0 512 512;" xml:space="preserve">
<g>
	<path style="fill:#CB8252;" d="M97.103,0h317.793c4.875,0,8.828,3.952,8.828,8.828V256H88.276V8.828
		C88.276,3.952,92.228,0,97.103,0z"/>
	<polyline style="fill:#B0D3F0;" points="123.586,229.517 123.586,35.31 388.414,35.31 388.414,229.517 	"/>
	<g>
		<path style="fill:#E6E7E8;" d="M158.897,88.276c-3.57-0.001-6.788-2.152-8.154-5.45c-1.366-3.298-0.611-7.094,1.913-9.619
			l8.828-8.828c3.456-3.394,9.001-3.369,12.426,0.056c3.425,3.425,3.45,8.97,0.056,12.426l-8.828,8.828
			C163.484,87.348,161.238,88.279,158.897,88.276z"/>
		<path style="fill:#E6E7E8;" d="M158.897,132.414c-3.57-0.001-6.788-2.152-8.154-5.45c-1.366-3.298-0.611-7.094,1.913-9.619
			l52.966-52.966c3.456-3.394,9.001-3.369,12.426,0.056c3.425,3.425,3.45,8.97,0.056,12.426l-52.966,52.966
			C163.484,131.486,161.238,132.416,158.897,132.414z"/>
	</g>
	<g>
		<path style="fill:#CB8252;" d="M0,459.034h35.31v44.138c0,4.875-3.952,8.828-8.828,8.828H8.828C3.952,512,0,508.048,0,503.172
			V459.034z"/>
		<path style="fill:#CB8252;" d="M476.69,459.034H512v44.138c0,4.875-3.952,8.828-8.828,8.828h-17.655
			c-4.875,0-8.828-3.952-8.828-8.828V459.034z"/>
	</g>
	<path style="fill:#805333;" d="M512,476.69H0V247.172c0-9.751,7.904-17.655,17.655-17.655h476.69
		c9.751,0,17.655,7.904,17.655,17.655V476.69z"/>
	<g>
		<path style="fill:#CB8252;" d="M44.138,264.828h185.379c4.875,0,8.828,3.952,8.828,8.828v52.966c0,4.875-3.952,8.828-8.828,8.828
			H44.138c-4.875,0-8.828-3.952-8.828-8.828v-52.966C35.31,268.78,39.263,264.828,44.138,264.828z"/>
		<path style="fill:#CB8252;" d="M282.483,264.828h185.379c4.875,0,8.828,3.952,8.828,8.828v52.966c0,4.875-3.952,8.828-8.828,8.828
			H282.483c-4.875,0-8.828-3.952-8.828-8.828v-52.966C273.655,268.78,277.607,264.828,282.483,264.828z"/>
		<path style="fill:#CB8252;" d="M44.138,370.759h185.379c4.875,0,8.828,3.952,8.828,8.828v52.966c0,4.875-3.952,8.828-8.828,8.828
			H44.138c-4.875,0-8.828-3.952-8.828-8.828v-52.966C35.31,374.711,39.263,370.759,44.138,370.759z"/>
		<path style="fill:#CB8252;" d="M282.483,370.759h185.379c4.875,0,8.828,3.952,8.828,8.828v52.966c0,4.875-3.952,8.828-8.828,8.828
			H282.483c-4.875,0-8.828-3.952-8.828-8.828v-52.966C273.655,374.711,277.607,370.759,282.483,370.759z"/>
	</g>
	<g>
		<path style="fill:#805333;" d="M150.069,308.966h-35.31c-4.875,0-8.828-3.952-8.828-8.828s3.952-8.828,8.828-8.828h35.31
			c4.875,0,8.828,3.952,8.828,8.828S154.944,308.966,150.069,308.966z"/>
		<path style="fill:#805333;" d="M150.069,414.897h-35.31c-4.875,0-8.828-3.952-8.828-8.828s3.952-8.828,8.828-8.828h35.31
			c4.875,0,8.828,3.952,8.828,8.828S154.944,414.897,150.069,414.897z"/>
		<path style="fill:#805333;" d="M388.414,308.966h-35.31c-4.875,0-8.828-3.952-8.828-8.828s3.952-8.828,8.828-8.828h35.31
			c4.875,0,8.828,3.952,8.828,8.828S393.289,308.966,388.414,308.966z"/>
		<path style="fill:#805333;" d="M388.414,414.897h-35.31c-4.875,0-8.828-3.952-8.828-8.828s3.952-8.828,8.828-8.828h35.31
			c4.875,0,8.828,3.952,8.828,8.828S393.289,414.897,388.414,414.897z"/>
	</g>
</g>
<g>
</g>
<g>
</g>
<g>
</g>
<g>
</g>
<g>
</g>
<g>
</g>
<g>
</g>
<g>
</g>
<g>
</g>
<g>
</g>
<g>
</g>
<g>
</g>
<g>
</g>
<g>
</g>
<g>
</g>
</svg>
