<?xml version="1.0" encoding="iso-8859-1"?>
<!-- Generator: Adobe Illustrator 19.0.0, SVG Export Plug-In . SVG Version: 6.00 Build 0)  -->
<svg version="1.1" id="Capa_1" xmlns="http://www.w3.org/2000/svg" xmlns:xlink="http://www.w3.org/1999/xlink" x="0px" y="0px"
	 viewBox="0 0 512 512" style="enable-background:new 0 0 512 512;" xml:space="preserve">
<g>
	<g>
		<path style="fill:#CC6F56;" d="M114.759,450.207h35.31v52.966c0,4.875-3.952,8.828-8.828,8.828h-17.655
			c-4.875,0-8.828-3.952-8.828-8.828V450.207z"/>
		<path style="fill:#CC6F56;" d="M361.931,450.207h35.31v52.966c0,4.875-3.952,8.828-8.828,8.828h-17.655
			c-4.875,0-8.828-3.952-8.828-8.828V450.207z"/>
	</g>
	<path style="fill:#804537;" d="M114.759,0h282.483c9.751,0,17.655,7.904,17.655,17.655v441.379c0,9.751-7.904,17.655-17.655,17.655
		H114.759c-9.751,0-17.655-7.905-17.655-17.655V17.655C97.103,7.904,105.008,0,114.759,0z"/>
	<path style="fill:#CC6F56;" d="M141.241,229.517h229.517c4.875,0,8.828,3.952,8.828,8.828v194.207c0,4.875-3.952,8.828-8.828,8.828
		H141.241c-4.875,0-8.828-3.952-8.828-8.828V238.345C132.414,233.469,136.366,229.517,141.241,229.517z"/>
	<g>
		<rect x="132.414" y="291.31" style="fill:#804537;" width="247.172" height="17.655"/>
		<rect x="132.414" y="361.931" style="fill:#804537;" width="247.172" height="17.655"/>
	</g>
	<path style="fill:#CC6F56;" d="M141.241,35.31h229.517c4.875,0,8.828,3.952,8.828,8.828v141.241c0,4.875-3.952,8.828-8.828,8.828
		H141.241c-4.875,0-8.828-3.952-8.828-8.828V44.138C132.414,39.263,136.366,35.31,141.241,35.31z"/>
	<g>
		<rect x="247.172" y="26.483" style="fill:#804537;" width="17.655" height="176.552"/>
		<circle style="fill:#804537;" cx="194.207" cy="114.759" r="17.655"/>
		<circle style="fill:#804537;" cx="317.793" cy="114.759" r="17.655"/>
		<path style="fill:#804537;" d="M273.655,273.655h-35.31c-4.875,0-8.828-3.952-8.828-8.828s3.952-8.828,8.828-8.828h35.31
			c4.875,0,8.828,3.952,8.828,8.828S278.531,273.655,273.655,273.655z"/>
		<path style="fill:#804537;" d="M273.655,344.276h-35.31c-4.875,0-8.828-3.952-8.828-8.828s3.952-8.828,8.828-8.828h35.31
			c4.875,0,8.828,3.952,8.828,8.828S278.531,344.276,273.655,344.276z"/>
		<path style="fill:#804537;" d="M273.655,414.897h-35.31c-4.875,0-8.828-3.952-8.828-8.828s3.952-8.828,8.828-8.828h35.31
			c4.875,0,8.828,3.952,8.828,8.828S278.531,414.897,273.655,414.897z"/>
	</g>
</g>
<g>
</g>
<g>
</g>
<g>
</g>
<g>
</g>
<g>
</g>
<g>
</g>
<g>
</g>
<g>
</g>
<g>
</g>
<g>
</g>
<g>
</g>
<g>
</g>
<g>
</g>
<g>
</g>
<g>
</g>
</svg>
