<?xml version="1.0" encoding="iso-8859-1"?>
<!-- Generator: Adobe Illustrator 19.0.0, SVG Export Plug-In . SVG Version: 6.00 Build 0)  -->
<svg version="1.1" id="Capa_1" xmlns="http://www.w3.org/2000/svg" xmlns:xlink="http://www.w3.org/1999/xlink" x="0px" y="0px"
	 viewBox="0 0 512 512" style="enable-background:new 0 0 512 512;" xml:space="preserve">
<g>
	<g>
		<path style="fill:#804537;" d="M423.724,317.793c-2.341,0.001-4.587-0.929-6.243-2.585c-1.656-1.656-2.585-3.901-2.585-6.243v-256
			c0-4.875,3.952-8.828,8.828-8.828c4.875,0,8.828,3.952,8.828,8.828v256c0.001,2.341-0.929,4.587-2.585,6.243
			C428.311,316.864,426.066,317.794,423.724,317.793z"/>
		<path style="fill:#804537;" d="M379.586,203.034c-4.875,0-8.828-3.952-8.828-8.828V52.966c0-4.875,3.952-8.828,8.828-8.828
			s8.828,3.952,8.828,8.828v141.241C388.414,199.082,384.462,203.034,379.586,203.034z"/>
		<path style="fill:#804537;" d="M88.276,317.793c-4.875,0-8.828-3.952-8.828-8.828v-256c0-4.875,3.952-8.828,8.828-8.828
			c4.875,0,8.828,3.952,8.828,8.828v256C97.103,313.841,93.151,317.793,88.276,317.793z"/>
		<path style="fill:#804537;" d="M132.414,203.034c-4.875,0-8.828-3.952-8.828-8.828V52.966c0-4.875,3.952-8.828,8.828-8.828
			s8.828,3.952,8.828,8.828v141.241C141.241,199.082,137.289,203.034,132.414,203.034z"/>
	</g>
	<path style="fill:#CB8252;" d="M388.414,247.172v-61.793H123.586v61.793l-44.138,70.621v88.276c0,9.751,7.904,17.655,17.655,17.655
		h317.793c9.751,0,17.655-7.904,17.655-17.655v-88.276L388.414,247.172z"/>
	<polygon style="fill:#805333;" points="432.552,388.414 79.448,388.414 123.586,326.621 388.414,326.621 	"/>
	<path style="fill:#CB8252;" d="M432.552,388.414v17.655c0,9.751-7.905,17.655-17.655,17.655H97.103
		c-9.751,0-17.655-7.904-17.655-17.655v-17.655"/>
	<g>
		<polygon style="fill:#CC6F56;" points="123.586,247.172 123.586,326.621 79.448,388.414 79.448,308.966 		"/>
		<polygon style="fill:#CC6F56;" points="432.552,308.966 432.552,388.414 388.414,326.621 388.414,247.172 		"/>
	</g>
	<g>
		<path style="fill:#805333;" d="M35.31,35.31v467.862c-0.015,4.869-3.958,8.813-8.828,8.828H8.828
			c-4.869-0.015-8.813-3.958-8.828-8.828V35.31H35.31z"/>
		<path style="fill:#805333;" d="M512,35.31v467.862c-0.014,4.869-3.958,8.813-8.828,8.828h-17.655
			c-4.869-0.014-8.813-3.958-8.828-8.828V35.31H512z"/>
	</g>
	<rect style="fill:#CB8252;" width="512" height="52.966"/>
</g>
<g>
</g>
<g>
</g>
<g>
</g>
<g>
</g>
<g>
</g>
<g>
</g>
<g>
</g>
<g>
</g>
<g>
</g>
<g>
</g>
<g>
</g>
<g>
</g>
<g>
</g>
<g>
</g>
<g>
</g>
</svg>
