<?xml version="1.0" encoding="iso-8859-1"?>
<!-- Generator: Adobe Illustrator 19.0.0, SVG Export Plug-In . SVG Version: 6.00 Build 0)  -->
<svg version="1.1" id="Capa_1" xmlns="http://www.w3.org/2000/svg" xmlns:xlink="http://www.w3.org/1999/xlink" x="0px" y="0px"
	 viewBox="0 0 512 512" style="enable-background:new 0 0 512 512;" xml:space="preserve">
<g>
	<path style="fill:#95A5A5;" d="M494.345,308.966v88.276H70.621v-70.621c0.028-9.739,7.916-17.627,17.655-17.655H494.345z"/>
	<rect x="8.828" y="379.586" style="fill:#B19046;" width="494.345" height="61.793"/>
	<path style="fill:#BDC3C7;" d="M476.69,114.759H35.31c-4.875,0-8.828,3.952-8.828,8.828c0,4.875,3.952,8.828,8.828,8.828h61.793
		v247.172h17.655V132.414h52.966v247.172h17.655V132.414h61.793v247.172h17.655V132.414h61.793v247.172h17.655V132.414h52.966
		v247.172h17.655V132.414h61.793c4.875,0,8.828-3.952,8.828-8.828C485.517,118.711,481.565,114.759,476.69,114.759z"/>
	<g>
		<path style="fill:#E4C05C;" d="M17.655,35.31L17.655,35.31c9.751,0,17.655,7.904,17.655,17.655v441.379
			c0,9.751-7.904,17.655-17.655,17.655l0,0C7.904,512,0,504.095,0,494.345V52.966C0,43.215,7.904,35.31,17.655,35.31z"/>
		<path style="fill:#E4C05C;" d="M494.345,35.31L494.345,35.31c9.751,0,17.655,7.904,17.655,17.655v441.379
			c0,9.751-7.905,17.655-17.655,17.655l0,0c-9.751,0-17.655-7.905-17.655-17.655V52.966C476.69,43.215,484.594,35.31,494.345,35.31z
			"/>
	</g>
	<g>
		<circle style="fill:#F3D55B;" cx="17.655" cy="17.655" r="17.655"/>
		<circle style="fill:#F3D55B;" cx="494.345" cy="17.655" r="17.655"/>
	</g>
</g>
<g>
</g>
<g>
</g>
<g>
</g>
<g>
</g>
<g>
</g>
<g>
</g>
<g>
</g>
<g>
</g>
<g>
</g>
<g>
</g>
<g>
</g>
<g>
</g>
<g>
</g>
<g>
</g>
<g>
</g>
</svg>
