<?xml version="1.0" encoding="iso-8859-1"?>
<!-- Generator: Adobe Illustrator 19.0.0, SVG Export Plug-In . SVG Version: 6.00 Build 0)  -->
<svg version="1.1" id="Capa_1" xmlns="http://www.w3.org/2000/svg" xmlns:xlink="http://www.w3.org/1999/xlink" x="0px" y="0px"
	 viewBox="0 0 512 512" style="enable-background:new 0 0 512 512;" xml:space="preserve">
<g>
	<g>
		<rect x="132.414" y="432.552" style="fill:#CB8252;" width="35.31" height="79.448"/>
		<rect x="344.276" y="432.552" style="fill:#CB8252;" width="35.31" height="79.448"/>
	</g>
	<rect x="238.345" y="17.655" style="fill:#D1D4D1;" width="35.31" height="97.103"/>
	<path style="fill:#805333;" d="M347.719,176.552h23.04c14.608,0.043,26.44,11.874,26.483,26.483v247.172
		c-0.043,14.608-11.874,26.44-26.483,26.483H141.241c-14.608-0.043-26.44-11.875-26.483-26.483V203.034
		c0.043-14.608,11.874-26.44,26.483-26.483H347.719z"/>
	<path style="fill:#CB8252;" d="M167.724,211.862h176.552c9.751,0,17.655,7.904,17.655,17.655v194.207
		c0,9.751-7.904,17.655-17.655,17.655H167.724c-9.751,0-17.655-7.904-17.655-17.655V229.517
		C150.069,219.767,157.973,211.862,167.724,211.862z"/>
	<g>
		<rect x="247.172" y="211.862" style="fill:#805333;" width="17.655" height="229.517"/>
		<circle style="fill:#805333;" cx="203.034" cy="282.483" r="17.655"/>
		<circle style="fill:#805333;" cx="308.966" cy="282.483" r="17.655"/>
	</g>
	<path style="fill:#D1D4D1;" d="M370.759,123.586c0,48.753-51.379,88.276-114.759,88.276s-114.759-39.522-114.759-88.276H370.759z"
		/>
	<g>
		<path style="fill:#A5A5A4;" d="M141.241,88.276h229.517c9.751,0,17.655,7.904,17.655,17.655l0,0
			c0,9.751-7.904,17.655-17.655,17.655H141.241c-9.751,0-17.655-7.904-17.655-17.655l0,0
			C123.586,96.18,131.491,88.276,141.241,88.276z"/>
		<path style="fill:#A5A5A4;" d="M229.517,0h52.966v26.483c0,9.751-7.904,17.655-17.655,17.655h-17.655
			c-9.751,0-17.655-7.904-17.655-17.655V0z"/>
	</g>
</g>
<g>
</g>
<g>
</g>
<g>
</g>
<g>
</g>
<g>
</g>
<g>
</g>
<g>
</g>
<g>
</g>
<g>
</g>
<g>
</g>
<g>
</g>
<g>
</g>
<g>
</g>
<g>
</g>
<g>
</g>
</svg>
