<?xml version="1.0" encoding="iso-8859-1"?>
<!-- Generator: Adobe Illustrator 19.0.0, SVG Export Plug-In . SVG Version: 6.00 Build 0)  -->
<svg version="1.1" id="Capa_1" xmlns="http://www.w3.org/2000/svg" xmlns:xlink="http://www.w3.org/1999/xlink" x="0px" y="0px"
	 viewBox="0 0 512 512" style="enable-background:new 0 0 512 512;" xml:space="preserve">
<g>
	<path style="fill:#547580;" d="M82.441,182.237H47.729c-4.793,0-8.678-3.885-8.678-8.678c0-4.793,3.885-8.678,8.678-8.678h34.712
		c4.793,0,8.678,3.885,8.678,8.678C91.119,178.352,87.233,182.237,82.441,182.237z"/>
	<path style="fill:#84B5CB;" d="M82.441,199.593c-4.793,0-8.678-3.885-8.678-8.678v-34.712c0-4.793,3.885-8.678,8.678-8.678
		c4.793,0,8.678,3.885,8.678,8.678v34.712C91.119,195.708,87.233,199.593,82.441,199.593z"/>
	<path style="fill:#D1D4D1;" d="M47.729,234.305c-4.793,0-8.678-3.885-8.678-8.678V60.746C39.051,27.197,66.248,0,99.797,0
		s60.746,27.197,60.746,60.746v8.678c0,4.793-3.885,8.678-8.678,8.678c-4.793,0-8.678-3.885-8.678-8.678v-8.678
		c0-23.964-19.426-43.39-43.39-43.39s-43.39,19.426-43.39,43.39v164.881c0,2.302-0.914,4.509-2.542,6.136
		C52.238,233.391,50.03,234.305,47.729,234.305z"/>
	<g>
		<path style="fill:#A5A5A4;" d="M151.864,461.321v42.001c-0.014,4.787-3.891,8.664-8.678,8.678h-17.356
			c-4.787-0.014-8.664-3.891-8.678-8.678v-52.068L151.864,461.321z"/>
		<path style="fill:#A5A5A4;" d="M394.847,451.254v52.068c-0.014,4.787-3.891,8.664-8.678,8.678h-17.356
			c-4.787-0.014-8.664-3.891-8.678-8.678v-42.001L394.847,451.254z"/>
	</g>
	<path style="fill:#D1D4D1;" d="M21.695,242.983h468.61v78.102c0,86.269-69.935,156.203-156.203,156.203H177.898
		c-86.269,0-156.203-69.935-156.203-156.203V242.983z"/>
	<path style="fill:#A5A5A4;" d="M21.695,225.627h468.61c9.585,0,17.356,7.771,17.356,17.356l0,0c0,9.585-7.771,17.356-17.356,17.356
		H21.695c-9.585,0-17.356-7.771-17.356-17.356l0,0C4.339,233.398,12.109,225.627,21.695,225.627z"/>
	<path style="fill:#84B5CB;" d="M108.475,112.814c0-23.964,19.426-43.39,43.39-43.39s43.39,19.426,43.39,43.39H108.475z"/>
</g>
<g>
</g>
<g>
</g>
<g>
</g>
<g>
</g>
<g>
</g>
<g>
</g>
<g>
</g>
<g>
</g>
<g>
</g>
<g>
</g>
<g>
</g>
<g>
</g>
<g>
</g>
<g>
</g>
<g>
</g>
</svg>
