<?xml version="1.0" encoding="iso-8859-1"?>
<!-- Generator: Adobe Illustrator 19.0.0, SVG Export Plug-In . SVG Version: 6.00 Build 0)  -->
<svg version="1.1" id="Capa_1" xmlns="http://www.w3.org/2000/svg" xmlns:xlink="http://www.w3.org/1999/xlink" x="0px" y="0px"
	 viewBox="0 0 512.001 512.001" style="enable-background:new 0 0 512.001 512.001;" xml:space="preserve">
<g>
	<path style="fill:#D75E72;" d="M75.029,485.518h-35.31v-26.483c0-9.751,7.904-17.655,17.655-17.655s17.655,7.905,17.655,17.655
		V485.518z"/>
	<path style="fill:#D1D4D1;" d="M383.995,0.001c-35.101-0.109-68.309,15.901-90.084,43.432
		c-21.775,27.53-29.707,63.533-21.517,97.665l-0.155-0.385l-119.349,61.175c-13.854-9.436-31.854-10.216-46.473-2.015
		c-14.618,8.201-23.335,23.97-22.503,40.711c0.831,16.741,11.067,31.569,26.426,38.281V476.69H30.891
		c-9.751,0-17.655,7.904-17.655,17.655s7.904,17.655,17.655,17.655h194.207c9.751,0,17.655-7.905,17.655-17.655
		s-7.904-17.655-17.655-17.655H145.65V278.864c16.063-7.082,26.443-22.964,26.483-40.519c0.003-2.159-0.175-4.315-0.53-6.444
		l113.877-58.35l-0.183-0.455c28.26,47.796,86.695,68.49,138.737,49.133s82.748-73.21,72.903-127.856
		C487.09,39.727,439.52-0.022,383.995,0.001z"/>
	<g>
		<path style="fill:#A5A5A4;" d="M172.133,238.345c-0.039,17.555-10.42,33.437-26.483,40.519c-11.275,4.826-24.035,4.826-35.31,0
			c-19.521-8.449-30.251-29.609-25.531-50.35c4.72-20.741,23.549-35.175,44.804-34.345s38.902,16.687,41.991,37.733
			C171.958,234.031,172.135,236.186,172.133,238.345z"/>
		<path style="fill:#A5A5A4;" d="M30.891,476.69h194.207c9.751,0,17.655,7.904,17.655,17.655l0,0
			c0,9.751-7.904,17.655-17.655,17.655H30.891c-9.751,0-17.655-7.905-17.655-17.655l0,0C13.236,484.595,21.141,476.69,30.891,476.69
			z"/>
		<circle style="fill:#A5A5A4;" cx="383.995" cy="114.759" r="114.759"/>
	</g>
	<path style="fill:#F9EAB0;" d="M383.995,194.207c-43.878,0-79.448-35.57-79.448-79.448s35.57-79.448,79.448-79.448
		s79.448,35.57,79.448,79.448C463.393,158.616,427.852,194.157,383.995,194.207z"/>
	<circle style="fill:#F3D55B;" cx="383.995" cy="114.759" r="44.138"/>
</g>
<g>
</g>
<g>
</g>
<g>
</g>
<g>
</g>
<g>
</g>
<g>
</g>
<g>
</g>
<g>
</g>
<g>
</g>
<g>
</g>
<g>
</g>
<g>
</g>
<g>
</g>
<g>
</g>
<g>
</g>
</svg>
