<?xml version="1.0" encoding="iso-8859-1"?>
<!-- Generator: Adobe Illustrator 19.0.0, SVG Export Plug-In . SVG Version: 6.00 Build 0)  -->
<svg version="1.1" id="Capa_1" xmlns="http://www.w3.org/2000/svg" xmlns:xlink="http://www.w3.org/1999/xlink" x="0px" y="0px"
	 viewBox="0 0 512 512" style="enable-background:new 0 0 512 512;" xml:space="preserve">
<g transform="translate(-1)">
	<path style="fill:#D1D4D1;" d="M468.862,260.83C469.956,378.938,375.108,475.576,257,476.69
		C138.892,475.576,44.044,378.938,45.138,260.83C45.138,141.614,139.992,0,257,0S468.862,141.614,468.862,260.83z"/>
	<path style="fill:#A5A5A4;" d="M318.793,512H195.207c-9.751,0-17.655-7.905-17.655-17.655s7.904-17.655,17.655-17.655h123.586
		c9.751,0,17.655,7.904,17.655,17.655S328.544,512,318.793,512z"/>
	<path style="fill:#CC4B4C;" d="M433.552,256c0,63.47-79.007,114.759-176.552,114.759S80.448,319.47,80.448,256
		c0-99.31,81.479-220.69,176.552-220.69S433.552,156.69,433.552,256z"/>
	<path style="fill:#802F34;" d="M204.034,123.586h105.931c11.706,0,22.933,4.65,31.21,12.928
		c8.277,8.277,12.928,19.504,12.928,31.21v141.241H159.897V167.724C159.897,143.347,179.658,123.586,204.034,123.586z"/>
	<path style="fill:#FB7B76;" d="M371.759,326.797v16.419C336.43,361.9,296.96,371.373,257,370.759
		c-39.96,0.615-79.43-8.858-114.759-27.542v-16.419c-0.017-9.786,7.869-17.751,17.655-17.832h194.207
		C363.889,309.046,371.775,317.011,371.759,326.797z"/>
</g>
<g>
</g>
<g>
</g>
<g>
</g>
<g>
</g>
<g>
</g>
<g>
</g>
<g>
</g>
<g>
</g>
<g>
</g>
<g>
</g>
<g>
</g>
<g>
</g>
<g>
</g>
<g>
</g>
<g>
</g>
</svg>
