<?xml version="1.0" encoding="iso-8859-1"?>
<!-- Generator: Adobe Illustrator 19.0.0, SVG Export Plug-In . SVG Version: 6.00 Build 0)  -->
<svg version="1.1" id="Capa_1" xmlns="http://www.w3.org/2000/svg" xmlns:xlink="http://www.w3.org/1999/xlink" x="0px" y="0px"
	 viewBox="0 0 511.928 511.928" style="enable-background:new 0 0 511.928 511.928;" xml:space="preserve">
<g>
	<rect x="238.309" y="370.686" style="fill:#7F8C8D;" width="35.31" height="74.24"/>
	<path style="fill:#CB8252;" d="M406.033,194.135v176.552c-0.029,9.739-7.916,17.627-17.655,17.655H123.55
		c-9.739-0.029-17.627-7.916-17.655-17.655V194.135L255.964,61.721L406.033,194.135z"/>
	<path style="fill:#E4C05C;" d="M249.634,2.496c3.496-3.396,9.083-3.316,12.48,0.178l212.321,218.387
		c3.447,3.447,3.447,9.037,0,12.484l-37.452,37.452c-3.447,3.447-9.037,3.447-12.484,0L262.206,108.704
		c-3.447-3.447-9.037-3.447-12.484,0L93.671,264.755c-1.655,1.655-3.901,2.586-6.242,2.586c-2.341,0-4.587-0.93-6.242-2.586
		l-43.694-43.694c-3.447-3.447-3.447-9.037,0-12.484L249.634,2.496z"/>
	<path style="fill:#E6E7E8;" d="M335.412,273.583c0.002,2.951-0.175,5.898-0.53,8.828c-4.119,36.869-33.222,65.972-70.091,70.091
		c-5.864,0.706-11.791,0.706-17.655,0c-36.869-4.119-65.972-33.222-70.091-70.091c-0.706-5.864-0.706-11.791,0-17.655
		c4.119-36.87,33.221-65.972,70.091-70.091c5.864-0.706,11.791-0.706,17.655,0c36.87,4.119,65.972,33.221,70.091,70.091
		C335.237,267.684,335.414,270.632,335.412,273.583z"/>
	<g>
		<path style="fill:#7F8C8D;" d="M273.619,291.238h-17.655c-2.341,0.001-4.587-0.929-6.243-2.585
			c-1.656-1.656-2.585-3.901-2.585-6.243V247.1c0-4.875,3.952-8.828,8.828-8.828c4.875,0,8.828,3.952,8.828,8.828v26.483h8.828
			c4.875,0,8.828,3.952,8.828,8.828S278.494,291.238,273.619,291.238z"/>
		<path style="fill:#7F8C8D;" d="M264.791,194.664v17.126c0,4.875-3.952,8.828-8.828,8.828c-4.875,0-8.828-3.952-8.828-8.828
			v-17.126C253,193.958,258.928,193.958,264.791,194.664z"/>
		<path style="fill:#7F8C8D;" d="M202.998,273.583c-0.015,4.869-3.958,8.813-8.828,8.828h-17.126
			c-0.706-5.864-0.706-11.791,0-17.655h17.126C199.04,264.77,202.984,268.714,202.998,273.583z"/>
		<path style="fill:#7F8C8D;" d="M264.791,335.376v17.126c-5.864,0.706-11.791,0.706-17.655,0v-17.126
			c0-4.875,3.952-8.828,8.828-8.828C260.839,326.548,264.791,330.501,264.791,335.376z"/>
		<path style="fill:#7F8C8D;" d="M335.412,273.583c0.002,2.951-0.175,5.898-0.53,8.828h-17.125c-4.875,0-8.828-3.952-8.828-8.828
			s3.952-8.828,8.828-8.828h17.125C335.237,267.684,335.414,270.632,335.412,273.583z"/>
	</g>
	<circle style="fill:#E4C05C;" cx="255.964" cy="467.79" r="44.138"/>
</g>
<g>
</g>
<g>
</g>
<g>
</g>
<g>
</g>
<g>
</g>
<g>
</g>
<g>
</g>
<g>
</g>
<g>
</g>
<g>
</g>
<g>
</g>
<g>
</g>
<g>
</g>
<g>
</g>
<g>
</g>
</svg>
