<?xml version="1.0" encoding="iso-8859-1"?>
<!-- Generator: Adobe Illustrator 19.0.0, SVG Export Plug-In . SVG Version: 6.00 Build 0)  -->
<svg version="1.1" id="Capa_1" xmlns="http://www.w3.org/2000/svg" xmlns:xlink="http://www.w3.org/1999/xlink" x="0px" y="0px"
	 viewBox="0 0 512 512" style="enable-background:new 0 0 512 512;" xml:space="preserve">
<g>
	<g>
		<path style="fill:#CB8252;" d="M241.164,28.841L117.578,143.599c-3.573,3.318-3.78,8.905-0.461,12.478s8.905,3.78,12.478,0.461
			L253.181,41.78c2.311-2.147,3.302-5.363,2.599-8.439c-0.703-3.075-2.994-5.541-6.009-6.47
			C246.756,25.943,243.475,26.694,241.164,28.841z"/>
		<path style="fill:#CB8252;" d="M394.422,143.599L270.836,28.841c-3.573-3.318-9.16-3.112-12.478,0.461
			c-3.318,3.573-3.112,9.16,0.461,12.478l123.586,114.759c3.573,3.318,9.16,3.112,12.478-0.461S397.996,146.918,394.422,143.599z"/>
	</g>
	<path style="fill:#AF8066;" d="M8.828,141.241h494.345c4.875,0,8.828,3.952,8.828,8.828v335.448c0,4.875-3.952,8.828-8.828,8.828
		H8.828c-4.875,0-8.828-3.952-8.828-8.828V150.069C0,145.194,3.952,141.241,8.828,141.241z"/>
	<path style="fill:#4482C3;" d="M476.69,185.379v264.828c0,4.875-3.952,8.828-8.828,8.828H44.138c-4.875,0-8.828-3.952-8.828-8.828
		V185.379c0-4.875,3.952-8.828,8.828-8.828h423.724C472.737,176.552,476.69,180.504,476.69,185.379z"/>
	<circle style="fill:#F3D55B;" cx="397.241" cy="256" r="44.138"/>
	<circle style="fill:#95A5A5;" cx="256" cy="35.31" r="17.655"/>
	<polygon style="fill:#71C285;" points="450.207,459.034 61.793,459.034 194.207,300.138 280.894,386.825 326.621,335.448 	"/>
</g>
<g>
</g>
<g>
</g>
<g>
</g>
<g>
</g>
<g>
</g>
<g>
</g>
<g>
</g>
<g>
</g>
<g>
</g>
<g>
</g>
<g>
</g>
<g>
</g>
<g>
</g>
<g>
</g>
<g>
</g>
</svg>
