<?xml version="1.0" encoding="iso-8859-1"?>
<!-- Generator: Adobe Illustrator 19.0.0, SVG Export Plug-In . SVG Version: 6.00 Build 0)  -->
<svg version="1.1" id="Capa_1" xmlns="http://www.w3.org/2000/svg" xmlns:xlink="http://www.w3.org/1999/xlink" x="0px" y="0px"
	 viewBox="0 0 512 512" style="enable-background:new 0 0 512 512;" xml:space="preserve">
<g>
	<g>
		<path style="fill:#CC6F56;" d="M389.208,26.483h-65.099c-3.352-0.147-6.309-2.235-7.569-5.344C310.785,9.057,285.893,0,256,0
			s-54.785,9.057-60.54,21.138c-1.26,3.109-4.218,5.198-7.57,5.344h-65.099c-4.437,0-8.033,3.597-8.033,8.033v459.829
			c0,9.751,7.904,17.655,17.655,17.655s17.655-7.905,17.655-17.655v-26.483h211.862v26.483c0,9.751,7.904,17.655,17.655,17.655
			c9.751,0,17.655-7.905,17.655-17.655V34.516C397.241,30.079,393.645,26.483,389.208,26.483z"/>
		<rect x="141.241" y="353.103" style="fill:#CC6F56;" width="229.517" height="114.759"/>
	</g>
	<g>
		<path style="fill:#7F5B53;" d="M114.759,361.931v132.414c0,9.751,7.904,17.655,17.655,17.655s17.655-7.905,17.655-17.655V361.931"
			/>
		<path style="fill:#7F5B53;" d="M397.241,361.931v132.414c0,9.751-7.904,17.655-17.655,17.655c-9.751,0-17.655-7.905-17.655-17.655
			V361.931"/>
	</g>
	<rect x="114.759" y="326.621" style="fill:#804537;" width="282.483" height="35.31"/>
	<path style="fill:#B0D3F0;" d="M361.931,69.826v256.794H150.069V69.826c0-4.437,3.597-8.033,8.033-8.033h47.128
		c3.531-0.109,6.611-2.43,7.689-5.794C217.32,44.143,234.946,35.31,256,35.31s38.68,8.833,43.081,20.689
		c1.078,3.364,4.158,5.685,7.689,5.794h47.128C358.335,61.793,361.931,65.39,361.931,69.826z"/>
	<g>
		<rect x="247.172" y="353.103" style="fill:#804537;" width="17.655" height="114.759"/>
		<path style="fill:#804537;" d="M211.862,423.724h-17.655c-4.875,0-8.828-3.952-8.828-8.828s3.952-8.828,8.828-8.828h17.655
			c4.875,0,8.828,3.952,8.828,8.828S216.737,423.724,211.862,423.724z"/>
		<path style="fill:#804537;" d="M317.793,423.724h-17.655c-4.875,0-8.828-3.952-8.828-8.828s3.952-8.828,8.828-8.828h17.655
			c4.875,0,8.828,3.952,8.828,8.828S322.668,423.724,317.793,423.724z"/>
	</g>
	<g>
		<path style="fill:#E6E7E8;" d="M185.379,123.586c-3.57-0.001-6.788-2.152-8.154-5.45s-0.611-7.094,1.913-9.619l17.655-17.655
			c3.456-3.394,9.001-3.369,12.426,0.056s3.45,8.97,0.056,12.426L191.62,121C189.967,122.658,187.721,123.589,185.379,123.586z"/>
		<path style="fill:#E6E7E8;" d="M185.379,167.724c-3.57-0.001-6.788-2.152-8.154-5.45c-1.366-3.298-0.611-7.094,1.913-9.619
			l61.793-61.793c3.456-3.394,9.001-3.369,12.426,0.056s3.45,8.97,0.056,12.426l-61.793,61.793
			C189.967,166.796,187.721,167.727,185.379,167.724z"/>
	</g>
</g>
<g>
</g>
<g>
</g>
<g>
</g>
<g>
</g>
<g>
</g>
<g>
</g>
<g>
</g>
<g>
</g>
<g>
</g>
<g>
</g>
<g>
</g>
<g>
</g>
<g>
</g>
<g>
</g>
<g>
</g>
</svg>
