<?xml version="1.0" encoding="iso-8859-1"?>
<!-- Generator: Adobe Illustrator 19.0.0, SVG Export Plug-In . SVG Version: 6.00 Build 0)  -->
<svg version="1.1" id="Capa_1" xmlns="http://www.w3.org/2000/svg" xmlns:xlink="http://www.w3.org/1999/xlink" x="0px" y="0px"
	 viewBox="0 0 512 512" style="enable-background:new 0 0 512 512;" xml:space="preserve">
<g>
	<path style="fill:#95A5A5;" d="M388.414,141.241c-4.875,0-8.828,3.952-8.828,8.828v70.621H291.31v-70.621
		c0-4.875-3.952-8.828-8.828-8.828s-8.828,3.952-8.828,8.828v229.517c0,4.875,3.952,8.828,8.828,8.828s8.828-3.952,8.828-8.828
		v-70.621h88.276v70.621c0,4.875,3.952,8.828,8.828,8.828s8.828-3.952,8.828-8.828V150.069
		C397.241,145.194,393.289,141.241,388.414,141.241z M379.586,238.345V256H291.31v-17.655H379.586z M291.31,291.31v-17.655h88.276
		v17.655H291.31z"/>
	<g>
		<rect x="8.828" y="158.897" style="fill:#CB8252;" width="494.345" height="35.31"/>
		<rect x="8.828" y="397.241" style="fill:#CB8252;" width="494.345" height="35.31"/>
	</g>
	<g>
		<path style="fill:#805333;" d="M17.655,0L17.655,0C27.406,0,35.31,7.904,35.31,17.655v476.69c0,9.751-7.904,17.655-17.655,17.655
			l0,0C7.904,512,0,504.095,0,494.345V17.655C0,7.904,7.904,0,17.655,0z"/>
		<path style="fill:#805333;" d="M494.345,0L494.345,0C504.095,0,512,7.904,512,17.655v476.69c0,9.751-7.905,17.655-17.655,17.655
			l0,0c-9.751,0-17.655-7.905-17.655-17.655V17.655C476.69,7.904,484.594,0,494.345,0z"/>
	</g>
	<path style="fill:#BDC3C7;" d="M35.31,335.448h361.931c24.377,0,44.138,19.761,44.138,44.138v17.655H35.31V335.448z"/>
	<path style="fill:#D1D4D1;" d="M35.31,300.138h52.966c9.751,0,17.655,7.904,17.655,17.655v17.655H35.31V300.138z"/>
	<path style="fill:#BDC3C7;" d="M35.31,97.103h361.931c24.377,0,44.138,19.761,44.138,44.138v17.655H35.31V97.103z"/>
	<path style="fill:#D1D4D1;" d="M35.31,61.793h52.966c9.751,0,17.655,7.904,17.655,17.655v17.655H35.31V61.793z"/>
</g>
<g>
</g>
<g>
</g>
<g>
</g>
<g>
</g>
<g>
</g>
<g>
</g>
<g>
</g>
<g>
</g>
<g>
</g>
<g>
</g>
<g>
</g>
<g>
</g>
<g>
</g>
<g>
</g>
<g>
</g>
</svg>
