<?xml version="1.0" encoding="iso-8859-1"?>
<!-- Generator: Adobe Illustrator 19.0.0, SVG Export Plug-In . SVG Version: 6.00 Build 0)  -->
<svg version="1.1" id="Capa_1" xmlns="http://www.w3.org/2000/svg" xmlns:xlink="http://www.w3.org/1999/xlink" x="0px" y="0px"
	 viewBox="0 0 512 512" style="enable-background:new 0 0 512 512;" xml:space="preserve">
<g>
	<g>
		<path style="fill:#CB8252;" d="M114.759,459.034h35.31v44.138c0,4.875-3.952,8.828-8.828,8.828h-17.655
			c-4.875,0-8.828-3.952-8.828-8.828V459.034z"/>
		<path style="fill:#CB8252;" d="M361.931,459.034h35.31v44.138c0,4.875-3.952,8.828-8.828,8.828h-17.655
			c-4.875,0-8.828-3.952-8.828-8.828V459.034z"/>
	</g>
	<path style="fill:#805333;" d="M114.759,0h282.483c19.501,0,35.31,15.809,35.31,35.31v406.069c0,19.501-15.809,35.31-35.31,35.31
		H114.759c-19.501,0-35.31-15.809-35.31-35.31V35.31C79.448,15.809,95.257,0,114.759,0z"/>
	<rect x="114.759" y="35.31" style="fill:#CB8252;" width="282.483" height="406.069"/>
	<g>
		<path style="fill:#805333;" d="M194.207,414.897h-17.655c-4.875,0-8.828-3.952-8.828-8.828s3.952-8.828,8.828-8.828h17.655
			c4.875,0,8.828,3.952,8.828,8.828S199.082,414.897,194.207,414.897z"/>
		<path style="fill:#805333;" d="M335.448,414.897h-17.655c-4.875,0-8.828-3.952-8.828-8.828s3.952-8.828,8.828-8.828h17.655
			c4.875,0,8.828,3.952,8.828,8.828S340.324,414.897,335.448,414.897z"/>
	</g>
	<path style="fill:#CC4B4C;" d="M123.586,79.448h17.655c4.875,0,8.828,3.952,8.828,8.828v61.793h-35.31V88.276
		C114.759,83.401,118.711,79.448,123.586,79.448z"/>
	<path style="fill:#90BAE1;" d="M158.897,70.621h17.655c4.875,0,8.828,3.952,8.828,8.828v70.621h-35.31V79.448
		C150.069,74.573,154.021,70.621,158.897,70.621z"/>
	<g>
		<path style="fill:#CC4B4C;" d="M194.207,88.276h17.655c4.875,0,8.828,3.952,8.828,8.828v52.966h-35.31V97.103
			C185.379,92.228,189.332,88.276,194.207,88.276z"/>
		<path style="fill:#CC4B4C;" d="M264.828,88.276h17.655c4.875,0,8.828,3.952,8.828,8.828v52.966H256V97.103
			C256,92.228,259.952,88.276,264.828,88.276z"/>
	</g>
	<path style="fill:#90BAE1;" d="M229.517,70.621h17.655c4.875,0,8.828,3.952,8.828,8.828v70.621h-35.31V79.448
		C220.69,74.573,224.642,70.621,229.517,70.621z"/>
	<path style="fill:#CC4B4C;" d="M194.207,194.207h17.655c4.875,0,8.828,3.952,8.828,8.828v61.793h-35.31v-61.793
		C185.379,198.159,189.332,194.207,194.207,194.207z"/>
	<g>
		<path style="fill:#90BAE1;" d="M264.828,300.138h17.655c4.875,0,8.828,3.952,8.828,8.828v61.793H256v-61.793
			C256,304.09,259.952,300.138,264.828,300.138z"/>
		<path style="fill:#90BAE1;" d="M123.586,300.138h17.655c4.875,0,8.828,3.952,8.828,8.828v61.793h-35.31v-61.793
			C114.759,304.09,118.711,300.138,123.586,300.138z"/>
		<path style="fill:#90BAE1;" d="M229.517,185.379h17.655c4.875,0,8.828,3.952,8.828,8.828v70.621h-35.31v-70.621
			C220.69,189.332,224.642,185.379,229.517,185.379z"/>
		<path style="fill:#90BAE1;" d="M158.897,185.379h17.655c4.875,0,8.828,3.952,8.828,8.828v70.621h-35.31v-70.621
			C150.069,189.332,154.021,185.379,158.897,185.379z"/>
	</g>
	<g>
		<path style="fill:#CC4B4C;" d="M264.828,203.034h17.655c4.875,0,8.828,3.952,8.828,8.828v52.966H256v-52.966
			C256,206.987,259.952,203.034,264.828,203.034z"/>
		<path style="fill:#CC4B4C;" d="M229.517,308.966h17.655c4.875,0,8.828,3.952,8.828,8.828v52.966h-35.31v-52.966
			C220.69,312.918,224.642,308.966,229.517,308.966z"/>
		<path style="fill:#CC4B4C;" d="M335.448,203.034h17.655c4.875,0,8.828,3.952,8.828,8.828v52.966h-35.31v-52.966
			C326.621,206.987,330.573,203.034,335.448,203.034z"/>
	</g>
	<g>
		<path style="fill:#90BAE1;" d="M335.448,308.966h17.655c4.875,0,8.828,3.952,8.828,8.828v52.966h-35.31v-52.966
			C326.621,312.918,330.573,308.966,335.448,308.966z"/>
		<path style="fill:#90BAE1;" d="M300.138,185.379h17.655c4.875,0,8.828,3.952,8.828,8.828v70.621h-35.31v-70.621
			C291.31,189.332,295.263,185.379,300.138,185.379z"/>
	</g>
	<g>
		<path style="fill:#CC4B4C;" d="M370.759,291.31h17.655c4.875,0,8.828,3.952,8.828,8.828v70.621h-35.31v-70.621
			C361.931,295.263,365.883,291.31,370.759,291.31z"/>
		<path style="fill:#CC4B4C;" d="M300.138,291.31h17.655c4.875,0,8.828,3.952,8.828,8.828v70.621h-35.31v-70.621
			C291.31,295.263,295.263,291.31,300.138,291.31z"/>
	</g>
	<g>
		<polygon style="fill:#805333;" points="105.931,361.931 105.931,379.586 247.172,379.586 247.172,441.379 264.828,441.379 
			264.828,379.586 406.069,379.586 406.069,361.931 		"/>
		<rect x="105.931" y="141.241" style="fill:#805333;" width="300.138" height="17.655"/>
		<rect x="105.931" y="256" style="fill:#805333;" width="300.138" height="17.655"/>
	</g>
</g>
<g>
</g>
<g>
</g>
<g>
</g>
<g>
</g>
<g>
</g>
<g>
</g>
<g>
</g>
<g>
</g>
<g>
</g>
<g>
</g>
<g>
</g>
<g>
</g>
<g>
</g>
<g>
</g>
<g>
</g>
</svg>
