<?xml version="1.0" encoding="iso-8859-1"?>
<!-- Generator: Adobe Illustrator 19.0.0, SVG Export Plug-In . SVG Version: 6.00 Build 0)  -->
<svg version="1.1" id="Capa_1" xmlns="http://www.w3.org/2000/svg" xmlns:xlink="http://www.w3.org/1999/xlink" x="0px" y="0px"
	 viewBox="0 0 512 512" style="enable-background:new 0 0 512 512;" xml:space="preserve">
<g>
	<path style="fill:#E4C05C;" d="M97.095,158.897c-4.311-0.005-7.988-3.123-8.698-7.375l-8.828-52.966
		c-0.756-4.786,2.488-9.286,7.267-10.084c4.779-0.797,9.308,2.407,10.147,7.179l8.828,52.966c0.427,2.561-0.296,5.18-1.975,7.161
		C102.157,157.757,99.691,158.898,97.095,158.897z"/>
	<path style="fill:#4482C3;" d="M114.75,158.897c-3.058-0.002-5.898-1.587-7.504-4.19c-1.607-2.602-1.752-5.851-0.383-8.586
		l17.655-35.31c1.405-2.832,4.216-4.696,7.371-4.889c3.155-0.193,6.172,1.316,7.911,3.956c1.739,2.64,1.934,6.007,0.511,8.83
		l-17.655,35.31C121.159,157.011,118.097,158.901,114.75,158.897z"/>
	<path style="fill:#BDC3C7;" d="M88.276,150.069h35.31c4.875,0,8.828,3.952,8.828,8.828v79.448H79.448v-79.448
		C79.448,154.021,83.401,150.069,88.276,150.069z"/>
	<rect x="52.966" y="229.517" style="fill:#804537;" width="406.069" height="238.345"/>
	<g>
		<path style="fill:#CC6F56;" d="M70.621,238.345v256c0,9.751-7.904,17.655-17.655,17.655s-17.655-7.905-17.655-17.655v-256H70.621z
			"/>
		<path style="fill:#CC6F56;" d="M476.69,238.345v256c0,9.751-7.905,17.655-17.655,17.655s-17.655-7.905-17.655-17.655v-256H476.69z
			"/>
		<path style="fill:#CC6F56;" d="M114.759,291.31H220.69c4.875,0,8.828,3.952,8.828,8.828v123.586c0,4.875-3.952,8.828-8.828,8.828
			H114.759c-4.875,0-8.828-3.952-8.828-8.828V300.138C105.931,295.263,109.883,291.31,114.759,291.31z"/>
		<path style="fill:#CC6F56;" d="M273.655,291.31h123.586c4.875,0,8.828,3.952,8.828,8.828v123.586c0,4.875-3.952,8.828-8.828,8.828
			H273.655c-4.875,0-8.828-3.952-8.828-8.828V300.138C264.828,295.263,268.78,291.31,273.655,291.31z"/>
	</g>
	<g>
		<rect x="105.931" y="353.103" style="fill:#804537;" width="123.586" height="17.655"/>
		<path style="fill:#804537;" d="M185.379,335.448h-35.31c-4.875,0-8.828-3.952-8.828-8.828s3.952-8.828,8.828-8.828h35.31
			c4.875,0,8.828,3.952,8.828,8.828S190.255,335.448,185.379,335.448z"/>
		<path style="fill:#804537;" d="M185.379,406.069h-35.31c-4.875,0-8.828-3.952-8.828-8.828c0-4.875,3.952-8.828,8.828-8.828h35.31
			c4.875,0,8.828,3.952,8.828,8.828C194.207,402.117,190.255,406.069,185.379,406.069z"/>
		<path style="fill:#804537;" d="M370.759,335.448c-1.155-0.014-2.296-0.254-3.358-0.707c-1.068-0.449-2.051-1.076-2.909-1.854
			c-3.414-3.481-3.414-9.054,0-12.534c0.857-0.78,1.841-1.409,2.909-1.858c2.151-0.879,4.561-0.879,6.711,0
			c1.07,0.449,2.056,1.077,2.914,1.858c1.611,1.693,2.525,3.931,2.56,6.268c-0.02,0.591-0.079,1.18-0.177,1.763
			c-0.098,0.553-0.277,1.089-0.53,1.591c-0.194,0.563-0.462,1.098-0.797,1.591c-0.349,0.44-0.703,0.879-1.056,1.323
			c-0.86,0.778-1.845,1.405-2.914,1.854C373.051,335.194,371.912,335.434,370.759,335.448z"/>
	</g>
	<rect x="300.138" y="132.414" style="fill:#95A5A5;" width="35.31" height="70.621"/>
	<path style="fill:#35495E;" d="M423.724,0H211.862c-4.869,0.015-8.813,3.958-8.828,8.828v123.586
		c0.015,4.869,3.958,8.813,8.828,8.828h211.862c4.869-0.015,8.813-3.958,8.828-8.828V8.828C432.537,3.958,428.593,0.015,423.724,0z"
		/>
	<g>
		<path style="fill:#BDC3C7;" d="M432.552,114.759v26.483c-0.015,4.869-3.958,8.813-8.828,8.828H211.862
			c-4.869-0.015-8.813-3.958-8.828-8.828v-26.483H432.552z"/>
		<path style="fill:#BDC3C7;" d="M273.655,220.69c0-19.501,19.761-35.31,44.138-35.31c24.377,0,44.138,15.809,44.138,35.31v17.655
			h-88.276V220.69z"/>
	</g>
	<g>
		<path style="fill:#4482C3;" d="M397.241,44.138h-8.828c-4.875,0-8.828-3.952-8.828-8.828s3.952-8.828,8.828-8.828h8.828
			c4.875,0,8.828,3.952,8.828,8.828S402.117,44.138,397.241,44.138z"/>
		<path style="fill:#4482C3;" d="M353.103,44.138h-35.31c-4.875,0-8.828-3.952-8.828-8.828s3.952-8.828,8.828-8.828h35.31
			c4.875,0,8.828,3.952,8.828,8.828S357.979,44.138,353.103,44.138z"/>
	</g>
	<path style="fill:#F0785A;" d="M8.828,220.69h494.345c4.875,0,8.828,3.952,8.828,8.828v17.655c0,4.875-3.952,8.828-8.828,8.828
		H8.828C3.952,256,0,252.048,0,247.172v-17.655C0,224.642,3.952,220.69,8.828,220.69z"/>
</g>
<g>
</g>
<g>
</g>
<g>
</g>
<g>
</g>
<g>
</g>
<g>
</g>
<g>
</g>
<g>
</g>
<g>
</g>
<g>
</g>
<g>
</g>
<g>
</g>
<g>
</g>
<g>
</g>
<g>
</g>
</svg>
