<?xml version="1.0" encoding="iso-8859-1"?>
<!-- Generator: Adobe Illustrator 19.0.0, SVG Export Plug-In . SVG Version: 6.00 Build 0)  -->
<svg version="1.1" id="Capa_1" xmlns="http://www.w3.org/2000/svg" xmlns:xlink="http://www.w3.org/1999/xlink" x="0px" y="0px"
	 viewBox="0 0 512 512" style="enable-background:new 0 0 512 512;" xml:space="preserve">
<g>
	<path style="fill:#46B29D;" d="M273.655,0h-35.31c-63.379,0-114.759,51.379-114.759,114.759v17.655h264.828v-17.655
		c0-30.436-12.091-59.625-33.612-81.147C333.28,12.091,304.091,0,273.655,0z"/>
	<path style="fill:#BDC3C7;" d="M123.586,114.759v17.655c0,9.751,7.904,17.655,17.655,17.655h88.276v123.586
		c0,4.875,3.952,8.828,8.828,8.828v176.552c-29.252,0-52.966,23.713-52.966,52.966h141.241c0-29.252-23.713-52.966-52.966-52.966
		V282.483c4.875,0,8.828-3.952,8.828-8.828V150.069h35.31v17.655c0,9.751,7.904,17.655,17.655,17.655h8.828
		c9.751,0,17.655-7.904,17.655-17.655v-17.655h8.828c9.751,0,17.655-7.904,17.655-17.655v-17.655H123.586z"/>
	<path style="fill:#95A5A5;" d="M229.517,150.069h52.966v123.586c0,4.875-3.952,8.828-8.828,8.828h-35.31
		c-4.875,0-8.828-3.952-8.828-8.828V150.069z"/>
	<rect x="238.345" y="282.483" style="fill:#7F8C8D;" width="35.31" height="176.552"/>
	<path style="fill:#95A5A5;" d="M317.793,150.069h44.138v17.655c0,9.751-7.904,17.655-17.655,17.655h-8.828
		c-9.751,0-17.655-7.904-17.655-17.655V150.069z"/>
</g>
<g>
</g>
<g>
</g>
<g>
</g>
<g>
</g>
<g>
</g>
<g>
</g>
<g>
</g>
<g>
</g>
<g>
</g>
<g>
</g>
<g>
</g>
<g>
</g>
<g>
</g>
<g>
</g>
<g>
</g>
</svg>
