<?xml version="1.0" encoding="iso-8859-1"?>
<!-- Generator: Adobe Illustrator 19.0.0, SVG Export Plug-In . SVG Version: 6.00 Build 0)  -->
<svg version="1.1" id="Capa_1" xmlns="http://www.w3.org/2000/svg" xmlns:xlink="http://www.w3.org/1999/xlink" x="0px" y="0px"
	 viewBox="0 0 512 512" style="enable-background:new 0 0 512 512;" xml:space="preserve">
<g>
	<path style="fill:#71C285;" d="M256.009,114.759c-0.566,0-1.13-0.053-1.685-0.16c-4.787-0.926-7.917-5.558-6.991-10.345l1.06-5.474
		c5.225-26.081,21.77-48.491,45.155-61.164c4.281-2.288,9.605-0.69,11.919,3.577c2.313,4.267,0.748,9.601-3.505,11.94
		c-18.768,10.171-32.048,28.153-36.25,49.082l-1.043,5.392C263.863,111.755,260.234,114.752,256.009,114.759z"/>
	<path style="fill:#F0C419;" d="M361.048,25.636c-2.344-7.572-9.347-12.735-17.274-12.733C341.568,5.261,334.574,0,326.621,0
		c-7.953,0-14.948,5.261-17.154,12.902c-7.927-0.001-14.93,5.161-17.274,12.733c-2.42,7.619,0.259,15.935,6.672,20.708
		c-2.489,7.597,0.112,15.936,6.478,20.771c6.323,4.712,15.001,4.67,21.277-0.104c6.276,4.774,14.955,4.817,21.278,0.105
		c6.366-4.835,8.967-13.175,6.478-20.771C360.79,41.571,363.469,33.255,361.048,25.636z"/>
	<path style="fill:#CC4B4C;" d="M326.621,44.138c-2.348,0.023-4.607-0.9-6.267-2.56c-1.66-1.66-2.583-3.919-2.56-6.267
		c0.023-3.984,2.713-7.46,6.564-8.481c3.851-1.022,7.91,0.663,9.905,4.112s1.432,7.807-1.374,10.636
		C331.195,43.189,328.957,44.103,326.621,44.138z"/>
	<polygon style="fill:#CC6F56;" points="337.258,344.276 441.379,344.276 441.379,379.586 295.654,379.586 216.347,379.586 
		70.621,379.586 70.621,344.276 174.742,344.276 	"/>
	<g>
		<path style="fill:#804537;" d="M97.104,256v238.345c0,9.751-7.905,17.655-17.655,17.655s-17.655-7.904-17.655-17.655V256H97.104z"
			/>
		<path style="fill:#804537;" d="M450.207,256v238.345c0,9.751-7.904,17.655-17.655,17.655s-17.655-7.905-17.655-17.655V256H450.207
			z"/>
	</g>
	<path style="fill:#CC6F56;" d="M114.759,273.655H35.31c-4.869-0.014-8.813-3.958-8.828-8.828v-17.655
		c0.014-4.869,3.958-8.813,8.828-8.828H476.69c4.869,0.014,8.813,3.958,8.828,8.828v17.655c-0.014,4.869-3.958,8.813-8.828,8.828
		H114.759z"/>
	<path style="fill:#46B29D;" d="M300.138,194.207c0.015,19.918-13.311,37.379-32.527,42.621c-19.216,5.242-39.563-3.033-49.665-20.2
		c-10.102-17.167-7.457-38.972,6.456-53.225c3.252-3.293,5.087-7.726,5.115-12.353v-45.119h52.966v45.123
		c0.019,4.609,1.841,9.027,5.077,12.309C295.619,171.608,300.134,182.678,300.138,194.207z"/>
	<path style="fill:#41767F;" d="M300.138,114.759h-88.276c-4.875,0-8.828-3.952-8.828-8.828s3.952-8.828,8.828-8.828h88.276
		c4.875,0,8.828,3.952,8.828,8.828S305.013,114.759,300.138,114.759z"/>
	<path style="fill:#BDC3C7;" d="M432.552,238.345l-35.31,34.957l-71.592,70.974l-35.663,35.31l-21.539,21.363
		c-6.906,6.797-17.988,6.797-24.894,0l-21.539-21.363l-35.663-35.31l-71.592-70.974l-35.31-34.957H432.552z"/>
</g>
<g>
</g>
<g>
</g>
<g>
</g>
<g>
</g>
<g>
</g>
<g>
</g>
<g>
</g>
<g>
</g>
<g>
</g>
<g>
</g>
<g>
</g>
<g>
</g>
<g>
</g>
<g>
</g>
<g>
</g>
</svg>
