<?xml version="1.0" encoding="iso-8859-1"?>
<!-- Generator: Adobe Illustrator 19.0.0, SVG Export Plug-In . SVG Version: 6.00 Build 0)  -->
<svg version="1.1" id="Capa_1" xmlns="http://www.w3.org/2000/svg" xmlns:xlink="http://www.w3.org/1999/xlink" x="0px" y="0px"
	 viewBox="0 0 512 512" style="enable-background:new 0 0 512 512;" xml:space="preserve">
<g>
	<g>
		<g>
			<polygon style="fill:#95A5A5;" points="79.448,512 44.138,512 35.31,459.034 88.276,459.034 			"/>
			<polygon style="fill:#95A5A5;" points="467.862,512 432.552,512 423.724,459.034 476.69,459.034 			"/>
		</g>
		<path style="fill:#95A5A5;" d="M494.345,361.931H335.448c14.626,0,26.483-11.857,26.483-26.483s-11.857-26.483-26.483-26.483
			h-61.793V185.379h-35.31v123.586h-61.793c-14.626,0-26.483,11.857-26.483,26.483s11.857,26.483,26.483,26.483H17.655
			C7.916,361.96,0.028,369.847,0,379.586v70.621c0.029,9.739,7.916,17.626,17.655,17.655h476.69
			c9.739-0.029,17.627-7.916,17.655-17.655v-70.621C511.972,369.847,504.084,361.96,494.345,361.931z"/>
	</g>
	<path style="fill:#7F8C8D;" d="M17.655,361.931h476.69c9.751,0,17.655,7.905,17.655,17.655v70.621
		c0,9.751-7.905,17.655-17.655,17.655H17.655C7.904,467.862,0,459.958,0,450.207v-70.621C0,369.836,7.904,361.931,17.655,361.931z"
		/>
	<g>
		<path style="fill:#95A5A5;" d="M70.621,0H8.828C3.958,0.014,0.014,3.958,0,8.828v308.966c0.014,4.869,3.958,8.813,8.828,8.828
			h61.793c4.869-0.014,8.813-3.958,8.828-8.828V8.828C79.434,3.958,75.49,0.014,70.621,0z"/>
		<path style="fill:#95A5A5;" d="M503.172,0h-61.793c-4.869,0.014-8.813,3.958-8.828,8.828v308.966
			c0.014,4.869,3.958,8.813,8.828,8.828h61.793c4.869-0.014,8.813-3.958,8.828-8.828V8.828C511.986,3.958,508.042,0.014,503.172,0z"
			/>
	</g>
	<path style="fill:#7F8C8D;" d="M79.448,229.517v88.276c-0.014,4.869-3.958,8.813-8.828,8.828H8.828
		c-4.869-0.014-8.813-3.958-8.828-8.828v-88.276H79.448z"/>
	<circle style="fill:#35495E;" cx="39.724" cy="278.069" r="13.241"/>
	<path style="fill:#7F8C8D;" d="M512,229.517v88.276c-0.014,4.869-3.958,8.813-8.828,8.828h-61.793
		c-4.869-0.014-8.813-3.958-8.828-8.828v-88.276H512z"/>
	<g>
		<g>
			<circle style="fill:#35495E;" cx="472.276" cy="278.069" r="13.241"/>
			<path style="fill:#35495E;" d="M123.586,35.31h264.828c4.875,0,8.828,3.952,8.828,8.828v158.897c0,4.875-3.952,8.828-8.828,8.828
				H123.586c-4.875,0-8.828-3.952-8.828-8.828V44.138C114.759,39.263,118.711,35.31,123.586,35.31z"/>
		</g>
		<path style="fill:#4482C3;" d="M326.621,344.276c-0.593-0.016-1.183-0.075-1.767-0.177c-0.552-0.098-1.086-0.277-1.586-0.53
			c-0.565-0.194-1.101-0.462-1.595-0.797c-0.44-0.35-0.879-0.703-1.319-1.056c-0.378-0.421-0.732-0.862-1.06-1.323
			c-0.336-0.492-0.603-1.027-0.793-1.591c-0.255-0.501-0.435-1.037-0.535-1.591c-0.1-0.583-0.157-1.172-0.172-1.763
			c0.031-2.338,0.945-4.577,2.56-6.268c0.417-0.381,0.858-0.735,1.319-1.06c0.494-0.335,1.03-0.604,1.595-0.797
			c0.499-0.254,1.034-0.431,1.587-0.526c1.131-0.267,2.309-0.267,3.44,0c0.586,0.081,1.154,0.259,1.681,0.526
			c0.562,0.194,1.095,0.462,1.586,0.797c0.464,0.325,0.908,0.679,1.328,1.06c1.611,1.693,2.525,3.931,2.56,6.268
			c-0.013,0.592-0.074,1.181-0.181,1.763c-0.093,0.554-0.27,1.091-0.526,1.591c-0.194,0.562-0.461,1.097-0.793,1.591
			c-0.353,0.44-0.707,0.879-1.06,1.323c-0.44,0.353-0.888,0.707-1.328,1.056c-0.491,0.335-1.024,0.603-1.586,0.797
			c-0.528,0.266-1.096,0.445-1.681,0.53C327.741,344.201,327.182,344.26,326.621,344.276z"/>
		<path style="fill:#65DDB9;" d="M185.379,344.276c-2.337-0.035-4.575-0.949-6.268-2.56c-0.798-0.844-1.427-1.833-1.854-2.914
			c-0.497-1.047-0.739-2.196-0.706-3.354c0.014-0.592,0.072-1.183,0.172-1.767c0.1-0.553,0.28-1.089,0.535-1.591
			c0.191-0.562,0.458-1.096,0.793-1.586c0.326-0.463,0.68-0.905,1.06-1.324c2.083-2.07,5.061-2.964,7.94-2.383
			c0.586,0.081,1.154,0.259,1.681,0.526c0.542,0.177,1.05,0.447,1.5,0.797c0.475,0.31,0.92,0.666,1.328,1.06
			c2.593,2.487,3.366,6.323,1.94,9.621c-0.426,1.101-1.088,2.096-1.94,2.914c-0.384,0.42-0.832,0.776-1.328,1.056
			c-0.45,0.351-0.958,0.62-1.5,0.797c-0.528,0.266-1.096,0.445-1.681,0.53C186.499,344.2,185.94,344.26,185.379,344.276z"/>
		<path style="fill:#E64C3C;" d="M211.862,344.276c-0.593-0.016-1.183-0.075-1.767-0.177c-0.552-0.098-1.086-0.277-1.586-0.53
			c-0.565-0.194-1.101-0.462-1.595-0.797c-0.461-0.324-0.902-0.677-1.319-1.056c-0.798-0.844-1.427-1.833-1.854-2.914
			c-0.452-1.061-0.692-2.2-0.706-3.354c0.014-0.592,0.072-1.183,0.172-1.767c0.1-0.553,0.28-1.089,0.535-1.591
			c0.191-0.562,0.458-1.096,0.793-1.586c0.353-0.444,0.707-0.884,1.06-1.323c3.539-3.267,8.995-3.267,12.534,0
			c0.353,0.44,0.707,0.879,1.06,1.323c0.331,0.492,0.598,1.026,0.793,1.586c0.256,0.5,0.433,1.036,0.526,1.591
			c0.107,0.583,0.168,1.174,0.181,1.767c-0.014,1.153-0.254,2.293-0.707,3.353c-0.427,1.08-1.056,2.069-1.854,2.914
			c-0.433,0.401-0.907,0.755-1.414,1.056c-0.45,0.351-0.958,0.62-1.5,0.797c-0.528,0.266-1.096,0.445-1.681,0.53
			C212.982,344.201,212.423,344.26,211.862,344.276z"/>
		<rect x="238.345" y="211.862" style="fill:#7F8C8D;" width="35.31" height="97.103"/>
		<g>
			<path style="fill:#4482C3;" d="M361.931,79.448h-8.828c-4.875,0-8.828-3.952-8.828-8.828s3.952-8.828,8.828-8.828h8.828
				c4.875,0,8.828,3.952,8.828,8.828S366.806,79.448,361.931,79.448z"/>
			<path style="fill:#4482C3;" d="M317.793,79.448H256c-4.875,0-8.828-3.952-8.828-8.828s3.952-8.828,8.828-8.828h61.793
				c4.875,0,8.828,3.952,8.828,8.828S322.668,79.448,317.793,79.448z"/>
		</g>
	</g>
	<path style="fill:#95A5A5;" d="M397.241,176.552v26.483c-0.014,4.869-3.958,8.813-8.828,8.828H123.586
		c-4.869-0.014-8.813-3.958-8.828-8.828v-26.483H397.241z"/>
	<g>
		<path style="fill:#BDC3C7;" d="M220.69,406.069h-8.828c-4.875,0-8.828-3.952-8.828-8.828c0-4.875,3.952-8.828,8.828-8.828h8.828
			c4.875,0,8.828,3.952,8.828,8.828C229.517,402.117,225.565,406.069,220.69,406.069z"/>
		<path style="fill:#BDC3C7;" d="M300.138,406.069h-8.828c-4.875,0-8.828-3.952-8.828-8.828c0-4.875,3.952-8.828,8.828-8.828h8.828
			c4.875,0,8.828,3.952,8.828,8.828C308.966,402.117,305.013,406.069,300.138,406.069z"/>
		<path style="fill:#BDC3C7;" d="M35.31,158.897c-2.341,0.001-4.587-0.929-6.243-2.585c-1.656-1.656-2.585-3.901-2.585-6.243V35.31
			c0-4.875,3.952-8.828,8.828-8.828s8.828,3.952,8.828,8.828v114.759c0.001,2.341-0.929,4.587-2.585,6.243
			C39.897,157.967,37.652,158.897,35.31,158.897z"/>
		<path style="fill:#BDC3C7;" d="M35.31,211.862c-2.341,0.001-4.587-0.929-6.243-2.585c-1.656-1.656-2.585-3.901-2.585-6.243
			v-17.655c0-4.875,3.952-8.828,8.828-8.828s8.828,3.952,8.828,8.828v17.655c0.001,2.341-0.929,4.587-2.585,6.243
			C39.897,210.933,37.652,211.863,35.31,211.862z"/>
		<path style="fill:#BDC3C7;" d="M467.862,158.897c-2.341,0.001-4.587-0.929-6.243-2.585c-1.656-1.656-2.585-3.901-2.585-6.243
			V35.31c0-4.875,3.952-8.828,8.828-8.828s8.828,3.952,8.828,8.828v114.759c0.001,2.341-0.929,4.587-2.585,6.243
			C472.449,157.967,470.203,158.897,467.862,158.897z"/>
		<path style="fill:#BDC3C7;" d="M467.862,211.862c-2.341,0.001-4.587-0.929-6.243-2.585c-1.656-1.656-2.585-3.901-2.585-6.243
			v-17.655c0-4.875,3.952-8.828,8.828-8.828s8.828,3.952,8.828,8.828v17.655c0.001,2.341-0.929,4.587-2.585,6.243
			C472.449,210.933,470.203,211.863,467.862,211.862z"/>
		<path style="fill:#BDC3C7;" d="M220.69,441.379H44.138c-4.875,0-8.828-3.952-8.828-8.828s3.952-8.828,8.828-8.828H220.69
			c4.875,0,8.828,3.952,8.828,8.828S225.565,441.379,220.69,441.379z"/>
		<path style="fill:#BDC3C7;" d="M467.862,441.379H291.31c-4.875,0-8.828-3.952-8.828-8.828s3.952-8.828,8.828-8.828h176.552
			c4.875,0,8.828,3.952,8.828,8.828S472.737,441.379,467.862,441.379z"/>
		<rect x="247.172" y="361.931" style="fill:#BDC3C7;" width="17.655" height="105.931"/>
	</g>
</g>
<g>
</g>
<g>
</g>
<g>
</g>
<g>
</g>
<g>
</g>
<g>
</g>
<g>
</g>
<g>
</g>
<g>
</g>
<g>
</g>
<g>
</g>
<g>
</g>
<g>
</g>
<g>
</g>
<g>
</g>
</svg>
