<?xml version="1.0" encoding="iso-8859-1"?>
<!-- Generator: Adobe Illustrator 19.0.0, SVG Export Plug-In . SVG Version: 6.00 Build 0)  -->
<svg version="1.1" id="Capa_1" xmlns="http://www.w3.org/2000/svg" xmlns:xlink="http://www.w3.org/1999/xlink" x="0px" y="0px"
	 viewBox="0 0 512 512" style="enable-background:new 0 0 512 512;" xml:space="preserve">
<g>
	<polygon style="fill:#E57E25;" points="291.31,88.276 291.31,97.103 220.69,97.103 220.69,88.276 229.517,0 282.483,0 	"/>
	<path style="fill:#D75E72;" d="M485.517,194.207v-35.31c4.875,0,8.828-3.952,8.828-8.828v-26.483h8.828
		c4.875,0,8.828-3.952,8.828-8.828V97.103c0-4.875-3.952-8.828-8.828-8.828H8.828C3.952,88.276,0,92.228,0,97.103v17.655
		c0,4.875,3.952,8.828,8.828,8.828h8.828v26.483c0,4.875,3.952,8.828,8.828,8.828v35.31l17.655,52.966v194.207H35.31
		c-4.875,0-8.828,3.952-8.828,8.828v26.483H8.828c-4.875,0-8.828,3.952-8.828,8.828V512h512v-26.483
		c0-4.875-3.952-8.828-8.828-8.828h-17.655v-26.483c0-4.875-3.952-8.828-8.828-8.828h-8.828V247.172L485.517,194.207z"/>
	<g>
		<path style="fill:#802D40;" d="M397.241,247.172v194.207h-52.966V308.966c0-48.753-39.522-88.276-88.276-88.276
			s-88.276,39.522-88.276,88.276v132.414h-52.966V247.172l17.655-52.966v-35.31h247.172v35.31L397.241,247.172z"/>
		<g>
			<path style="fill:#805333;" d="M8.828,476.69h494.345c4.875,0,8.828,3.952,8.828,8.828V512H0v-26.483
				C0,480.642,3.952,476.69,8.828,476.69z"/>
			<path style="fill:#805333;" d="M17.655,123.586h476.69v26.483c0,4.875-3.952,8.828-8.828,8.828H26.483
				c-4.875,0-8.828-3.952-8.828-8.828V123.586z"/>
		</g>
		<path style="fill:#802D40;" d="M35.31,441.379h97.103v35.31H26.483v-26.483C26.483,445.332,30.435,441.379,35.31,441.379z"/>
		<rect x="26.483" y="158.897" style="fill:#D75E72;" width="105.931" height="35.31"/>
		<polyline style="fill:#F0785A;" points="26.483,194.207 44.138,247.172 114.759,247.172 132.414,194.207 		"/>
		<path style="fill:#802D40;" d="M485.517,476.69H379.586v-35.31h97.103c4.875,0,8.828,3.952,8.828,8.828V476.69z"/>
		<rect x="379.586" y="158.897" style="fill:#D75E72;" width="105.931" height="35.31"/>
		<g>
			<polyline style="fill:#F0785A;" points="485.517,194.207 467.862,247.172 397.241,247.172 379.586,194.207 			"/>
			<rect x="132.414" y="441.379" style="fill:#F0785A;" width="247.172" height="35.31"/>
		</g>
		<path style="fill:#CB8252;" d="M8.828,88.276h494.345c4.875,0,8.828,3.952,8.828,8.828v17.655c0,4.875-3.952,8.828-8.828,8.828
			H8.828c-4.875,0-8.828-3.952-8.828-8.828V97.103C0,92.228,3.952,88.276,8.828,88.276z"/>
		<path style="fill:#CC4B4C;" d="M176.552,61.793c-0.022,14.617-11.866,26.461-26.483,26.483H35.31V35.31l114.759,0
			c7.027-0.009,13.768,2.778,18.736,7.746C173.774,48.025,176.561,54.767,176.552,61.793z"/>
		<path style="fill:#802F34;" d="M141.241,61.793c-0.015,4.869-3.958,8.813-8.828,8.828H35.31V52.966h97.103
			C137.283,52.98,141.227,56.924,141.241,61.793z"/>
		<circle style="fill:#CC4B4C;" cx="357.517" cy="66.207" r="22.069"/>
		<circle style="fill:#E57E25;" cx="401.655" cy="66.207" r="22.069"/>
		<g>
			<circle style="fill:#805333;" cx="445.793" cy="66.207" r="22.069"/>
			<path style="fill:#805333;" d="M211.862,406.069h88.276c4.875,0,8.828,3.952,8.828,8.828v26.483H203.034v-26.483
				C203.034,410.021,206.987,406.069,211.862,406.069z"/>
		</g>
	</g>
	<path style="fill:#F0C419;" d="M241.62,273.655c16.018,45.645-29.758,63.903-29.758,91.289
		c0.872,23.526,20.609,41.915,44.138,41.124c23.529,0.791,43.266-17.598,44.138-41.124
		C300.138,337.558,270.879,298.738,241.62,273.655z"/>
</g>
<g>
</g>
<g>
</g>
<g>
</g>
<g>
</g>
<g>
</g>
<g>
</g>
<g>
</g>
<g>
</g>
<g>
</g>
<g>
</g>
<g>
</g>
<g>
</g>
<g>
</g>
<g>
</g>
<g>
</g>
</svg>
