<?xml version="1.0" encoding="iso-8859-1"?>
<!-- Generator: Adobe Illustrator 19.0.0, SVG Export Plug-In . SVG Version: 6.00 Build 0)  -->
<svg version="1.1" id="Capa_1" xmlns="http://www.w3.org/2000/svg" xmlns:xlink="http://www.w3.org/1999/xlink" x="0px" y="0px"
	 viewBox="0 0 512 512" style="enable-background:new 0 0 512 512;" xml:space="preserve">
<g>
	<g>
		<polygon style="fill:#5E5F62;" points="79.448,512 44.138,512 35.31,459.034 88.276,459.034 		"/>
		<polygon style="fill:#5E5F62;" points="467.862,512 432.552,512 423.724,459.034 476.69,459.034 		"/>
		<rect x="79.448" y="273.655" style="fill:#5E5F62;" width="26.483" height="88.276"/>
		<rect x="406.069" y="273.655" style="fill:#5E5F62;" width="26.483" height="88.276"/>
	</g>
	<path style="fill:#35495E;" d="M476.69,344.276H35.31c-9.366-0.003-18.349,3.717-24.971,10.339
		C3.717,361.238-0.003,370.22,0,379.586v52.966c-0.003,9.366,3.717,18.348,10.339,24.971c6.623,6.622,15.605,10.342,24.971,10.339
		H476.69c9.366,0.003,18.348-3.717,24.971-10.339c6.622-6.623,10.342-15.605,10.339-24.971v-52.966
		c0.003-9.366-3.717-18.349-10.339-24.971C495.038,347.993,486.055,344.273,476.69,344.276z"/>
	<path style="fill:#2C3E50;" d="M247.172,406.069v61.793H35.31c-9.366,0.003-18.348-3.717-24.971-10.339
		C3.717,450.9-0.003,441.917,0,432.552l0-26.483H247.172z"/>
	<path style="fill:#285680;" d="M247.172,344.276v61.793H0l0-26.483c-0.003-9.366,3.717-18.349,10.339-24.971
		c6.623-6.623,15.605-10.342,24.971-10.339H247.172z"/>
	<path style="fill:#A5A5A4;" d="M8.828,0h494.345C508.048,0,512,3.952,512,8.828v273.655c0,4.875-3.952,8.828-8.828,8.828H8.828
		c-4.875,0-8.828-3.952-8.828-8.828V8.828C0,3.952,3.952,0,8.828,0z"/>
	<polygon style="fill:#35495E;" points="476.69,35.31 476.69,256 326.621,256 300.138,247.172 211.862,247.172 185.379,256 
		35.31,256 35.31,35.31 	"/>
	<g>
		<path style="fill:#4482C3;" d="M370.759,79.448h-17.655c-4.875,0-8.828-3.952-8.828-8.828s3.952-8.828,8.828-8.828h17.655
			c4.875,0,8.828,3.952,8.828,8.828S375.634,79.448,370.759,79.448z"/>
		<path style="fill:#4482C3;" d="M441.379,79.448h-35.31c-4.875,0-8.828-3.952-8.828-8.828s3.952-8.828,8.828-8.828h35.31
			c4.875,0,8.828,3.952,8.828,8.828S446.255,79.448,441.379,79.448z"/>
	</g>
	<path style="fill:#A5A5A4;" d="M61.793,370.759h123.586c4.875,0,8.828,3.952,8.828,8.828v26.483H52.966v-26.483
		C52.966,374.711,56.918,370.759,61.793,370.759z"/>
	<rect x="247.172" y="370.759" style="fill:#4482C3;" width="35.31" height="97.103"/>
	<rect x="282.483" y="370.759" style="fill:#24AE5F;" width="35.31" height="97.103"/>
	<rect x="317.793" y="370.759" style="fill:#4482C3;" width="35.31" height="97.103"/>
	<rect x="353.103" y="432.552" style="fill:#24AE5F;" width="97.103" height="35.31"/>
</g>
<g>
</g>
<g>
</g>
<g>
</g>
<g>
</g>
<g>
</g>
<g>
</g>
<g>
</g>
<g>
</g>
<g>
</g>
<g>
</g>
<g>
</g>
<g>
</g>
<g>
</g>
<g>
</g>
<g>
</g>
</svg>
