<?xml version="1.0" encoding="iso-8859-1"?>
<!-- Generator: Adobe Illustrator 19.0.0, SVG Export Plug-In . SVG Version: 6.00 Build 0)  -->
<svg version="1.1" id="Capa_1" xmlns="http://www.w3.org/2000/svg" xmlns:xlink="http://www.w3.org/1999/xlink" x="0px" y="0px"
	 viewBox="0 0 512 512" style="enable-background:new 0 0 512 512;" xml:space="preserve">
<g>
	<path style="fill:#A5A5A4;" d="M317.793,61.793h11.834c3.531,0,6.723,2.104,8.114,5.35l24.19,56.443v26.483H238.345v-26.483
		l24.19-56.443c1.391-3.246,4.583-5.35,8.114-5.35H317.793z"/>
	<path style="fill:#35495E;" d="M291.31,17.655h17.655c4.875,0,8.828,3.952,8.828,8.828v52.966c0,4.875-3.952,8.828-8.828,8.828
		H291.31c-4.875,0-8.828-3.952-8.828-8.828V26.483C282.483,21.607,286.435,17.655,291.31,17.655z"/>
	<rect x="150.069" y="406.069" style="fill:#804537;" width="211.862" height="35.31"/>
	<g>
		<path style="fill:#CC6F56;" d="M132.414,291.31h35.31v203.034c0,9.751-7.904,17.655-17.655,17.655
			c-9.751,0-17.655-7.905-17.655-17.655V291.31z"/>
		<path style="fill:#CC6F56;" d="M344.276,291.31h35.31v203.034c0,9.751-7.904,17.655-17.655,17.655s-17.655-7.905-17.655-17.655
			V291.31z"/>
	</g>
	<path style="fill:#804537;" d="M123.586,141.241h264.828V291.31c0,4.875-3.952,8.828-8.828,8.828H132.414
		c-4.875,0-8.828-3.952-8.828-8.828V141.241z"/>
	<g>
		<path style="fill:#CC6F56;" d="M105.931,123.586h300.138c4.875,0,8.828,3.952,8.828,8.828v17.655c0,4.875-3.952,8.828-8.828,8.828
			H105.931c-4.875,0-8.828-3.952-8.828-8.828v-17.655C97.103,127.538,101.056,123.586,105.931,123.586z"/>
		<rect x="158.897" y="194.207" style="fill:#CC6F56;" width="194.207" height="70.621"/>
	</g>
	<path style="fill:#804537;" d="M256,238.345c-2.337-0.035-4.575-0.949-6.268-2.56c-0.798-0.844-1.427-1.833-1.854-2.914
		c-0.452-1.061-0.692-2.2-0.706-3.354c0.031-2.338,0.945-4.577,2.56-6.268c2.083-2.07,5.061-2.964,7.94-2.383
		c0.586,0.081,1.154,0.259,1.681,0.526c0.542,0.177,1.05,0.447,1.5,0.797c0.526,0.353,0.974,0.707,1.414,1.06
		c1.612,1.693,2.526,3.931,2.561,6.267c-0.014,1.153-0.254,2.293-0.707,3.353c-0.427,1.08-1.056,2.069-1.854,2.914
		c-0.433,0.401-0.907,0.755-1.414,1.056c-0.45,0.351-0.958,0.62-1.5,0.797c-0.528,0.266-1.096,0.445-1.681,0.53
		C257.12,238.27,256.561,238.329,256,238.345z"/>
	<polygon style="fill:#E4C05C;" points="150.069,0 194.207,0 220.69,61.793 123.586,61.793 	"/>
	<circle style="fill:#67B9CC;" cx="172.138" cy="92.69" r="30.897"/>
</g>
<g>
</g>
<g>
</g>
<g>
</g>
<g>
</g>
<g>
</g>
<g>
</g>
<g>
</g>
<g>
</g>
<g>
</g>
<g>
</g>
<g>
</g>
<g>
</g>
<g>
</g>
<g>
</g>
<g>
</g>
</svg>
