<?xml version="1.0" encoding="iso-8859-1"?>
<!-- Generator: Adobe Illustrator 19.0.0, SVG Export Plug-In . SVG Version: 6.00 Build 0)  -->
<svg version="1.1" id="Capa_1" xmlns="http://www.w3.org/2000/svg" xmlns:xlink="http://www.w3.org/1999/xlink" x="0px" y="0px"
	 viewBox="0 0 512 512" style="enable-background:new 0 0 512 512;" xml:space="preserve">
<g>
	<path style="fill:#CB8252;" d="M361.931,388.414c0.028,14.759-0.916,29.503-2.825,44.138c-1.576,11.906-3.905,23.699-6.974,35.31
		c-3.764,14.738-9.432,28.923-16.861,42.196c-0.284,0.683-0.639,1.334-1.059,1.942h-156.16c-0.42-0.609-0.775-1.259-1.059-1.942
		c-7.534-13.233-13.236-27.428-16.949-42.196c-3.214-11.587-5.603-23.386-7.15-35.31c-3.767-29.305-3.767-58.971,0-88.276
		c1.547-11.924,3.936-23.724,7.15-35.31c3.768-14.75,9.467-28.938,16.949-42.196c0.284-0.683,0.639-1.334,1.059-1.942h156.16
		c0.42,0.608,0.775,1.259,1.059,1.942c7.429,13.273,13.097,27.458,16.861,42.196c3.068,11.611,5.398,23.405,6.974,35.31
		C361.015,358.911,361.959,373.655,361.931,388.414z"/>
	<g>
		<path style="fill:#F3D55B;" d="M204.879,441.379c-4.57-0.004-8.381-3.495-8.785-8.047c-1.254-14.125-1.888-29.237-1.888-44.918
			s0.634-30.793,1.888-44.918c0.431-4.856,4.717-8.444,9.573-8.013c4.856,0.431,8.444,4.717,8.013,9.573
			c-1.207,13.608-1.819,28.198-1.819,43.358s0.612,29.75,1.819,43.358c0.207,2.332-0.52,4.651-2.023,6.447
			c-1.503,1.795-3.657,2.92-5.99,3.127C205.401,441.366,205.138,441.379,204.879,441.379z"/>
		<path style="fill:#F3D55B;" d="M230.488,512h-19.156c-4.877-13.856-8.482-28.127-10.77-42.637
			c-0.073-0.497-0.103-0.999-0.088-1.501c-0.027-4.314,3.074-8.013,7.327-8.739c4.816-0.781,9.37,2.438,10.24,7.239
			c0.088,0.53,0.177,0.971,0.265,1.501c2.186,13.3,5.524,26.384,9.975,39.106c0.088,0.353,0.177,0.618,0.265,0.971
			c0.11,0.339,0.258,0.665,0.441,0.971C229.076,509.087,229.605,510.234,230.488,512z"/>
		<path style="fill:#F3D55B;" d="M229.517,264.828c-0.011,1.051-0.19,2.095-0.53,3.09c-0.155,0.278-0.274,0.574-0.353,0.883
			c-0.088,0.265-0.265,0.706-0.353,0.971c-4.444,12.754-7.781,25.868-9.975,39.194c-0.088,0.441-0.177,0.971-0.265,1.501
			c-0.753,4.237-4.436,7.325-8.739,7.327c-0.502,0.015-1.004-0.015-1.501-0.088c-4.219-0.784-7.291-4.448-7.327-8.739
			c-0.012-0.502,0.017-1.004,0.088-1.501c2.327-14.502,5.931-28.77,10.77-42.637H229.517z"/>
		<path style="fill:#F3D55B;" d="M307.12,441.379c-0.259,0-0.522-0.013-0.789-0.035c-2.332-0.206-4.487-1.331-5.99-3.127
			c-1.503-1.795-2.231-4.114-2.023-6.447c1.207-13.608,1.819-28.198,1.819-43.358s-0.612-29.75-1.819-43.358
			c-0.431-4.856,3.157-9.142,8.013-9.573c4.856-0.431,9.142,3.157,9.573,8.013c1.254,14.125,1.888,29.237,1.888,44.918
			s-0.634,30.793-1.888,44.918C315.502,437.884,311.69,441.376,307.12,441.379z"/>
		<path style="fill:#F3D55B;" d="M311.525,467.862c0.015,0.502-0.015,1.004-0.088,1.501c-2.288,14.51-5.893,28.781-10.77,42.637
			h-18.185c0.011-1.051,0.19-2.094,0.53-3.09c0.155-0.278,0.274-0.574,0.353-0.883c0.088-0.265,0.265-0.706,0.353-1.059
			c4.451-12.722,7.789-25.806,9.975-39.106c0.088-0.53,0.177-0.971,0.265-1.501c0.87-4.8,5.424-8.019,10.24-7.239
			C308.451,459.849,311.552,463.548,311.525,467.862z"/>
		<path style="fill:#F3D55B;" d="M311.525,308.966c0.026,4.314-3.075,8.013-7.327,8.739c-0.497,0.071-0.999,0.1-1.501,0.088
			c-4.291-0.036-7.955-3.108-8.739-7.327c-0.088-0.53-0.177-0.971-0.265-1.501c-2.186-13.3-5.524-26.384-9.975-39.106
			c-0.612-1.608-0.705-3.368-0.265-5.032h17.302c4.763,13.884,8.336,28.148,10.681,42.637
			C311.51,307.962,311.54,308.464,311.525,308.966z"/>
		<path style="fill:#F3D55B;" d="M256.53,441.379c-4.875,0-8.828-3.952-8.828-8.828v-88.276c0-4.875,3.952-8.828,8.828-8.828
			s8.828,3.952,8.828,8.828v88.276C265.357,437.427,261.405,441.379,256.53,441.379z"/>
		<path style="fill:#F3D55B;" d="M265.357,467.862V512h-17.655v-44.138c0-4.875,3.952-8.828,8.828-8.828
			C261.405,459.034,265.357,462.987,265.357,467.862z"/>
		<path style="fill:#F3D55B;" d="M265.357,264.828v44.138c0,4.875-3.952,8.828-8.828,8.828c-4.875,0-8.828-3.952-8.828-8.828
			v-44.138H265.357z"/>
	</g>
	<path style="fill:#71C285;" d="M308.965,226.404v3.113c0,19.501-15.809,35.31-35.31,35.31h-35.31
		c-19.501,0-35.31-15.809-35.31-35.31v-3.113c0.256-12.479,5.749-24.274,15.136-32.5c14.834-13.647,20.174-43.835,20.174-43.835
		h35.31c0,0,5.34,30.188,20.174,43.835C303.216,202.13,308.709,213.925,308.965,226.404z"/>
	<path style="fill:#E4C05C;" d="M353.103,123.586h-8.828L289.952,0h-67.904l-54.324,123.586h-8.828
		c-4.875,0-8.828,3.952-8.828,8.828v17.655c0,4.875,3.952,8.828,8.828,8.828h194.207c4.875,0,8.828-3.952,8.828-8.828v-17.655
		C361.931,127.538,357.979,123.586,353.103,123.586z"/>
	<path style="fill:#B19046;" d="M158.896,123.586h194.207c4.875,0,8.828,3.952,8.828,8.828v17.655c0,4.875-3.952,8.828-8.828,8.828
		H158.896c-4.875,0-8.828-3.952-8.828-8.828v-17.655C150.069,127.538,154.021,123.586,158.896,123.586z"/>
	<g>
		<path style="fill:#E4C05C;" d="M359.106,432.552c-1.576,11.906-3.905,23.699-6.974,35.31H160.044
			c-3.214-11.587-5.603-23.386-7.15-35.31H359.106z"/>
		<path style="fill:#E4C05C;" d="M359.106,344.276H152.894c1.547-11.924,3.936-23.724,7.15-35.31h192.088
			C355.201,320.576,357.53,332.37,359.106,344.276z"/>
	</g>
</g>
<g>
</g>
<g>
</g>
<g>
</g>
<g>
</g>
<g>
</g>
<g>
</g>
<g>
</g>
<g>
</g>
<g>
</g>
<g>
</g>
<g>
</g>
<g>
</g>
<g>
</g>
<g>
</g>
<g>
</g>
</svg>
