<?xml version="1.0" encoding="iso-8859-1"?>
<!-- Generator: Adobe Illustrator 19.0.0, SVG Export Plug-In . SVG Version: 6.00 Build 0)  -->
<svg version="1.1" id="Capa_1" xmlns="http://www.w3.org/2000/svg" xmlns:xlink="http://www.w3.org/1999/xlink" x="0px" y="0px"
	 viewBox="0 0 512 512" style="enable-background:new 0 0 512 512;" xml:space="preserve">
<g>
	<g>
		<path style="fill:#285680;" d="M123.586,282.483h-8.828c-24.365-0.029-44.109-19.773-44.138-44.138v-52.966
			c0-4.875,3.952-8.828,8.828-8.828c4.875,0,8.828,3.952,8.828,8.828v52.966c0.016,14.619,11.863,26.467,26.483,26.483h8.828
			c4.875,0,8.828,3.952,8.828,8.828S128.462,282.483,123.586,282.483z"/>
		<path style="fill:#285680;" d="M397.241,282.483h-8.828c-4.875,0-8.828-3.952-8.828-8.828s3.952-8.828,8.828-8.828h8.828
			c14.619-0.016,26.467-11.863,26.483-26.483v-61.793c0-4.875,3.952-8.828,8.828-8.828s8.828,3.952,8.828,8.828v61.793
			C441.351,262.71,421.606,282.454,397.241,282.483z"/>
	</g>
	<g>
		<rect x="229.517" y="194.207" style="fill:#3F5C6C;" width="52.966" height="105.931"/>
		<rect x="238.345" y="282.483" style="fill:#3F5C6C;" width="35.31" height="132.414"/>
	</g>
	<path style="fill:#4482C3;" d="M291.31,459.034H220.69l7.861-70.749c0.28-4.707,4.051-8.452,8.759-8.699h37.38
		c4.709,0.247,8.48,3.992,8.759,8.699L291.31,459.034z"/>
	<g>
		<path style="fill:#3F5C6C;" d="M158.897,460.623v-1.589c0-4.875,3.952-8.828,8.828-8.828h176.552c4.875,0,8.828,3.952,8.828,8.828
			v1.589l-17.655,24.894H176.552L158.897,460.623z"/>
		<path style="fill:#3F5C6C;" d="M61.793,150.069h35.31c4.875,0,8.828,3.952,8.828,8.828v17.655c0,9.751-7.904,17.655-17.655,17.655
			H70.621c-9.751,0-17.655-7.904-17.655-17.655v-17.655C52.966,154.021,56.918,150.069,61.793,150.069z"/>
		<path style="fill:#3F5C6C;" d="M441.379,194.207h-17.655c-9.751,0-17.655-7.904-17.655-17.655v-17.655
			c0-4.875,3.952-8.828,8.828-8.828h35.31c4.875,0,8.828,3.952,8.828,8.828v17.655C459.034,186.302,451.13,194.207,441.379,194.207z
			"/>
	</g>
	<g>
		<path style="fill:#4482C3;" d="M194.207,0h123.586c19.501,0,35.31,15.809,35.31,35.31v158.897c0,19.501-15.809,35.31-35.31,35.31
			H194.207c-19.501,0-35.31-15.809-35.31-35.31V35.31C158.897,15.809,174.706,0,194.207,0z"/>
		<path style="fill:#4482C3;" d="M123.586,264.828h264.828v17.655c0,19.501-15.809,35.31-35.31,35.31H158.897
			c-19.501,0-35.31-15.809-35.31-35.31V264.828z"/>
	</g>
	<g>
		<path style="fill:#285680;" d="M264.828,8.828v79.448c0,4.875-3.952,8.828-8.828,8.828s-8.828-3.952-8.828-8.828V8.828
			c-0.015-4.869-3.958-8.813-8.828-8.828h24.894C264.308,2.819,264.846,5.812,264.828,8.828z"/>
		<path style="fill:#285680;" d="M264.828,185.379v35.31c0.019,3.015-0.52,6.008-1.589,8.828h-24.894
			c4.869-0.015,8.813-3.958,8.828-8.828v-35.31c0-4.875,3.952-8.828,8.828-8.828S264.828,180.504,264.828,185.379z"/>
		<path style="fill:#285680;" d="M273.655,0c-4.869,0.015-8.813,3.958-8.828,8.828v79.448c0,4.875-3.952,8.828-8.828,8.828
			s-8.828-3.952-8.828-8.828V8.828c-0.019-3.015,0.52-6.008,1.589-8.828H273.655z"/>
		<path style="fill:#285680;" d="M273.655,229.517h-24.894c-1.069-2.82-1.608-5.812-1.589-8.828v-35.31
			c0-4.875,3.952-8.828,8.828-8.828s8.828,3.952,8.828,8.828v35.31C264.842,225.559,268.786,229.503,273.655,229.517z"/>
	</g>
	<g>
		<circle style="fill:#BDC3C7;" cx="150.069" cy="485.517" r="26.483"/>
		<circle style="fill:#BDC3C7;" cx="361.931" cy="485.517" r="26.483"/>
	</g>
</g>
<g>
</g>
<g>
</g>
<g>
</g>
<g>
</g>
<g>
</g>
<g>
</g>
<g>
</g>
<g>
</g>
<g>
</g>
<g>
</g>
<g>
</g>
<g>
</g>
<g>
</g>
<g>
</g>
<g>
</g>
</svg>
