<?xml version="1.0" encoding="iso-8859-1"?>
<!-- Generator: Adobe Illustrator 19.0.0, SVG Export Plug-In . SVG Version: 6.00 Build 0)  -->
<svg version="1.1" id="Capa_1" xmlns="http://www.w3.org/2000/svg" xmlns:xlink="http://www.w3.org/1999/xlink" x="0px" y="0px"
	 viewBox="0 0 512 512" style="enable-background:new 0 0 512 512;" xml:space="preserve">
<g>
	<g>
		<path style="fill:#CC6F56;" d="M35.31,428.138h88.276v35.31c0,9.751-7.904,17.655-17.655,17.655H52.966
			c-9.751,0-17.655-7.905-17.655-17.655V428.138z"/>
		<path style="fill:#CC6F56;" d="M388.414,428.138h88.276v35.31c0,9.751-7.905,17.655-17.655,17.655h-52.966
			c-9.751,0-17.655-7.905-17.655-17.655V428.138z"/>
	</g>
	<path style="fill:#804537;" d="M35.31,30.897H476.69c19.501,0,35.31,15.809,35.31,35.31v344.276c0,19.501-15.809,35.31-35.31,35.31
		H35.31c-19.501,0-35.31-15.809-35.31-35.31V66.207C0,46.706,15.809,30.897,35.31,30.897z"/>
	<g>
		<rect x="35.31" y="180.966" style="fill:#CC6F56;" width="441.379" height="114.759"/>
		<rect x="35.31" y="66.207" style="fill:#CC6F56;" width="441.379" height="114.759"/>
		<rect x="35.31" y="295.724" style="fill:#CC6F56;" width="441.379" height="114.759"/>
	</g>
	<g>
		<circle style="fill:#804537;" cx="256" cy="119.172" r="17.655"/>
		<circle style="fill:#804537;" cx="256" cy="233.931" r="17.655"/>
		<circle style="fill:#804537;" cx="256" cy="348.69" r="17.655"/>
		<rect x="35.31" y="172.138" style="fill:#804537;" width="441.379" height="17.655"/>
		<rect x="35.31" y="286.897" style="fill:#804537;" width="441.379" height="17.655"/>
	</g>
</g>
<g>
</g>
<g>
</g>
<g>
</g>
<g>
</g>
<g>
</g>
<g>
</g>
<g>
</g>
<g>
</g>
<g>
</g>
<g>
</g>
<g>
</g>
<g>
</g>
<g>
</g>
<g>
</g>
<g>
</g>
</svg>
