<?xml version="1.0" encoding="iso-8859-1"?>
<!-- Generator: Adobe Illustrator 19.0.0, SVG Export Plug-In . SVG Version: 6.00 Build 0)  -->
<svg version="1.1" id="Capa_1" xmlns="http://www.w3.org/2000/svg" xmlns:xlink="http://www.w3.org/1999/xlink" x="0px" y="0px"
	 viewBox="0 0 512 512" style="enable-background:new 0 0 512 512;" xml:space="preserve">
<g>
	<g>
		<path style="fill:#CB8252;" d="M185.379,459.034h35.31v44.138c0,4.875-3.952,8.828-8.828,8.828h-17.655
			c-4.875,0-8.828-3.952-8.828-8.828V459.034z"/>
		<path style="fill:#CB8252;" d="M291.31,459.034h35.31v44.138c0,4.875-3.952,8.828-8.828,8.828h-17.655
			c-4.875,0-8.828-3.952-8.828-8.828V459.034z"/>
	</g>
	<path style="fill:#805333;" d="M185.379,211.862h141.241c19.501,0,35.31,15.809,35.31,35.31v194.207
		c0,19.501-15.809,35.31-35.31,35.31H185.379c-19.501,0-35.31-15.809-35.31-35.31V247.172
		C150.069,227.671,165.878,211.862,185.379,211.862z"/>
	<rect x="185.379" y="247.172" style="fill:#CB8252;" width="141.241" height="194.207"/>
	<g>
		<rect x="185.379" y="335.448" style="fill:#805333;" width="141.241" height="17.655"/>
		<path style="fill:#805333;" d="M264.828,291.31h-17.655c-4.875,0-8.828-3.952-8.828-8.828s3.952-8.828,8.828-8.828h17.655
			c4.875,0,8.828,3.952,8.828,8.828S269.703,291.31,264.828,291.31z"/>
		<path style="fill:#805333;" d="M264.828,388.414h-17.655c-4.875,0-8.828-3.952-8.828-8.828s3.952-8.828,8.828-8.828h17.655
			c4.875,0,8.828,3.952,8.828,8.828S269.703,388.414,264.828,388.414z"/>
	</g>
	<path style="fill:#4482C3;" d="M285.219,114.759c19.497,12.896,28.235,37.048,21.501,59.433S279.376,211.901,256,211.901
		s-43.988-15.324-50.721-37.709s2.004-46.537,21.501-59.433l-6.091-17.655h70.621L285.219,114.759z"/>
	<path style="fill:#E4C05C;" d="M324.352,114.759H187.648c-2.69,0-5.234-1.227-6.908-3.332c-1.675-2.105-2.298-4.859-1.693-7.481
		l22.408-97.103C202.38,2.837,205.946,0,210.057,0h91.886c4.111,0,7.677,2.837,8.602,6.843l22.408,97.103
		c0.605,2.621-0.018,5.375-1.693,7.481C329.585,113.532,327.042,114.759,324.352,114.759z"/>
</g>
<g>
</g>
<g>
</g>
<g>
</g>
<g>
</g>
<g>
</g>
<g>
</g>
<g>
</g>
<g>
</g>
<g>
</g>
<g>
</g>
<g>
</g>
<g>
</g>
<g>
</g>
<g>
</g>
<g>
</g>
</svg>
