<?xml version="1.0" encoding="iso-8859-1"?>
<!-- Generator: Adobe Illustrator 19.0.0, SVG Export Plug-In . SVG Version: 6.00 Build 0)  -->
<svg version="1.1" id="Capa_1" xmlns="http://www.w3.org/2000/svg" xmlns:xlink="http://www.w3.org/1999/xlink" x="0px" y="0px"
	 viewBox="0 0 512 512" style="enable-background:new 0 0 512 512;" xml:space="preserve">
<g>
	<g>
		<path style="fill:#CB8252;" d="M114.759,459.034h35.31v44.138c0,4.875-3.952,8.828-8.828,8.828h-17.655
			c-4.875,0-8.828-3.952-8.828-8.828V459.034z"/>
		<path style="fill:#CB8252;" d="M361.931,459.034h35.31v44.138c0,4.875-3.952,8.828-8.828,8.828h-17.655
			c-4.875,0-8.828-3.952-8.828-8.828V459.034z"/>
	</g>
	<path style="fill:#805333;" d="M114.759,0h282.483c19.501,0,35.31,15.809,35.31,35.31v406.069c0,19.501-15.809,35.31-35.31,35.31
		H114.759c-19.501,0-35.31-15.809-35.31-35.31V35.31C79.448,15.809,95.257,0,114.759,0z"/>
	<rect x="114.759" y="282.483" style="fill:#CB8252;" width="282.483" height="158.897"/>
	<g>
		<rect x="247.172" y="273.655" style="fill:#805333;" width="17.655" height="176.552"/>
		<circle style="fill:#805333;" cx="203.034" cy="361.931" r="17.655"/>
		<circle style="fill:#805333;" cx="308.966" cy="361.931" r="17.655"/>
	</g>
	<rect x="114.759" y="35.31" style="fill:#CC6F56;" width="282.483" height="123.586"/>
	<rect x="114.759" y="158.897" style="fill:#804537;" width="282.483" height="123.586"/>
	<rect x="114.759" y="105.931" style="fill:#CC4B4C;" width="35.31" height="52.966"/>
	<rect x="114.759" y="70.621" style="fill:#802F34;" width="35.31" height="35.31"/>
	<rect x="150.069" y="105.931" style="fill:#4482C3;" width="35.31" height="52.966"/>
	<rect x="150.069" y="70.621" style="fill:#E4C05C;" width="35.31" height="35.31"/>
	<rect x="185.379" y="105.931" style="fill:#CC4B4C;" width="35.31" height="52.966"/>
	<rect x="185.379" y="70.621" style="fill:#802F34;" width="35.31" height="35.31"/>
	<rect x="220.69" y="105.931" style="fill:#4482C3;" width="35.31" height="52.966"/>
	<rect x="220.69" y="70.621" style="fill:#E4C05C;" width="35.31" height="35.31"/>
	<rect x="256" y="229.517" style="fill:#CC4B4C;" width="35.31" height="52.966"/>
	<rect x="256" y="194.207" style="fill:#802F34;" width="35.31" height="35.31"/>
	<rect x="291.31" y="229.517" style="fill:#4482C3;" width="35.31" height="52.966"/>
	<rect x="291.31" y="194.207" style="fill:#E4C05C;" width="35.31" height="35.31"/>
	<rect x="326.621" y="229.517" style="fill:#CC4B4C;" width="35.31" height="52.966"/>
	<rect x="326.621" y="194.207" style="fill:#802F34;" width="35.31" height="35.31"/>
	<rect x="361.931" y="229.517" style="fill:#4482C3;" width="35.31" height="52.966"/>
	<rect x="361.931" y="194.207" style="fill:#E4C05C;" width="35.31" height="35.31"/>
</g>
<g>
</g>
<g>
</g>
<g>
</g>
<g>
</g>
<g>
</g>
<g>
</g>
<g>
</g>
<g>
</g>
<g>
</g>
<g>
</g>
<g>
</g>
<g>
</g>
<g>
</g>
<g>
</g>
<g>
</g>
</svg>
