<?xml version="1.0" encoding="iso-8859-1"?>
<!-- Generator: Adobe Illustrator 19.0.0, SVG Export Plug-In . SVG Version: 6.00 Build 0)  -->
<svg version="1.1" id="Capa_1" xmlns="http://www.w3.org/2000/svg" xmlns:xlink="http://www.w3.org/1999/xlink" x="0px" y="0px"
	 viewBox="0 0 512 512" style="enable-background:new 0 0 512 512;" xml:space="preserve">
<g>
	<rect x="141.241" y="414.897" style="fill:#805333;" width="220.69" height="35.31"/>
	<g>
		<path style="fill:#CB8252;" d="M132.414,282.483h35.31v211.862c0,9.751-7.904,17.655-17.655,17.655
			c-9.751,0-17.655-7.905-17.655-17.655V282.483z"/>
		<path style="fill:#CB8252;" d="M335.448,282.483h35.31v211.862c0,9.751-7.904,17.655-17.655,17.655
			c-9.751,0-17.655-7.905-17.655-17.655V282.483z"/>
		<rect x="150.069" y="88.276" style="fill:#CB8252;" width="35.31" height="185.379"/>
		<rect x="238.345" y="88.276" style="fill:#CB8252;" width="35.31" height="185.379"/>
		<rect x="326.621" y="88.276" style="fill:#CB8252;" width="35.31" height="185.379"/>
	</g>
	<g>
		<path style="fill:#805333;" d="M132.414,0h247.172c9.751,0,17.655,7.904,17.655,17.655v70.621c0,9.751-7.904,17.655-17.655,17.655
			H132.414c-9.751,0-17.655-7.904-17.655-17.655V17.655C114.759,7.904,122.663,0,132.414,0z"/>
		<path style="fill:#805333;" d="M132.414,256h247.172c9.751,0,17.655,7.904,17.655,17.655v8.828
			c0,9.751-7.904,17.655-17.655,17.655H132.414c-9.751,0-17.655-7.905-17.655-17.655v-8.828
			C114.759,263.904,122.663,256,132.414,256z"/>
	</g>
</g>
<g>
</g>
<g>
</g>
<g>
</g>
<g>
</g>
<g>
</g>
<g>
</g>
<g>
</g>
<g>
</g>
<g>
</g>
<g>
</g>
<g>
</g>
<g>
</g>
<g>
</g>
<g>
</g>
<g>
</g>
</svg>
