<?xml version="1.0" encoding="iso-8859-1"?>
<!-- Generator: Adobe Illustrator 19.0.0, SVG Export Plug-In . SVG Version: 6.00 Build 0)  -->
<svg version="1.1" id="Capa_1" xmlns="http://www.w3.org/2000/svg" xmlns:xlink="http://www.w3.org/1999/xlink" x="0px" y="0px"
	 viewBox="0 0 512 512" style="enable-background:new 0 0 512 512;" xml:space="preserve">
<g>
	<path style="fill:#CC4B4C;" d="M476.69,0H35.31c-9.739,0.028-17.627,7.916-17.655,17.655v406.072l28.513-0.003
		c7.307,0.119,14.314-2.903,19.244-8.298c7.946-9.004,28.602-17.126,57.732-23.305c46.693-8.881,94.156-13.08,141.683-12.535
		c41.585-0.292,83.124,2.808,124.205,9.269c38.31,6.444,65.766,15.801,75.211,26.571c4.929,5.395,11.936,8.417,19.244,8.298
		l10.858,0.003V17.655C494.316,7.916,486.428,0.028,476.69,0z"/>
	<path style="fill:#802F34;" d="M459.034,168.783v35.399c-9.263,6.327-17.765,13.702-25.335,21.981
		c-17.146,18.561-29.721,40.869-36.723,65.148H115.023c-7.002-24.279-19.577-46.587-36.723-65.148
		c-7.57-8.278-16.072-15.654-25.335-21.981v-35.399C123.586,134.709,123.586,0,123.586,0h264.828
		C388.414,0,388.414,134.709,459.034,168.783z"/>
	<g>
		<rect x="17.655" y="450.207" style="fill:#CB8252;" width="35.31" height="61.793"/>
		<rect x="459.034" y="450.207" style="fill:#CB8252;" width="35.31" height="61.793"/>
	</g>
	<path style="fill:#805333;" d="M512,388.414v70.621c-0.029,9.739-7.916,17.627-17.655,17.655H17.655
		C7.916,476.661,0.029,468.773,0,459.034v-70.621c0.028-9.739,7.916-17.627,17.655-17.655h28.513
		c7.307,0.119,14.314-2.903,19.244-8.298c7.946-9.004,28.602-17.126,57.732-23.305c46.693-8.881,94.156-13.08,141.683-12.535
		c41.585-0.292,83.124,2.808,124.205,9.269c38.31,6.444,65.766,15.801,75.211,26.571c4.929,5.395,11.936,8.417,19.244,8.298h10.858
		C504.084,370.787,511.972,378.675,512,388.414z"/>
	<ellipse style="fill:#CB8252;" cx="256" cy="401.655" rx="167.724" ry="39.724"/>
	<g>
		<path style="fill:#E6E7E8;" d="M256,256v35.31H115.023c-7.002-24.279-19.577-46.587-36.723-65.148
			c5.624-3.565,12.144-5.462,18.803-5.473H220.69c9.366-0.003,18.348,3.717,24.971,10.339S256.003,246.634,256,256z"/>
		<path style="fill:#E6E7E8;" d="M433.699,226.163c-17.146,18.561-29.721,40.869-36.723,65.148H256V256
			c-0.003-9.366,3.717-18.348,10.339-24.971c6.623-6.623,15.605-10.342,24.971-10.339h123.586
			C421.555,220.7,428.075,222.598,433.699,226.163z"/>
	</g>
	<rect x="17.655" y="167.724" style="fill:#E4C05C;" width="35.31" height="35.31"/>
	<path style="fill:#D75E72;" d="M396.977,291.31c-4.31,14.515-6.975,29.469-7.944,44.579c-41.081-6.461-82.62-9.561-124.205-9.269
		c-47.527-0.545-94.99,3.654-141.683,12.535c-0.784-16.216-3.511-32.279-8.121-47.846H396.977z"/>
	<rect x="459.034" y="167.724" style="fill:#E4C05C;" width="35.31" height="35.31"/>
</g>
<g>
</g>
<g>
</g>
<g>
</g>
<g>
</g>
<g>
</g>
<g>
</g>
<g>
</g>
<g>
</g>
<g>
</g>
<g>
</g>
<g>
</g>
<g>
</g>
<g>
</g>
<g>
</g>
<g>
</g>
</svg>
