<?xml version="1.0" encoding="iso-8859-1"?>
<!-- Generator: Adobe Illustrator 19.0.0, SVG Export Plug-In . SVG Version: 6.00 Build 0)  -->
<svg version="1.1" id="Capa_1" xmlns="http://www.w3.org/2000/svg" xmlns:xlink="http://www.w3.org/1999/xlink" x="0px" y="0px"
	 viewBox="0 0 512 512" style="enable-background:new 0 0 512 512;" xml:space="preserve">
<g>
	<g>
		<rect x="8.828" y="432.552" style="fill:#CB8252;" width="35.31" height="79.448"/>
		<rect x="467.862" y="432.552" style="fill:#CB8252;" width="35.31" height="79.448"/>
	</g>
	<path style="fill:#D75E72;" d="M512,344.276v-35.31c0-9.751-7.905-17.655-17.655-17.655h-8.828V88.276
		C485.517,39.522,445.995,0,397.241,0H114.759C66.005,0,26.483,39.522,26.483,88.276V291.31h-8.828
		C7.904,291.31,0,299.215,0,308.966v35.31c0,9.751,7.904,17.655,17.655,17.655C7.904,361.931,0,369.836,0,379.586v79.448
		c0,4.875,3.952,8.828,8.828,8.828h494.345c4.875,0,8.828-3.952,8.828-8.828v-79.448c0-9.751-7.905-17.655-17.655-17.655
		C504.095,361.931,512,354.027,512,344.276z"/>
	<g>
		<path style="fill:#802D40;" d="M85.689,85.689l7-7l7,7c3.456,3.394,9.001,3.369,12.426-0.056c3.425-3.425,3.45-8.97,0.056-12.426
			l-7-7l7-7c3.394-3.456,3.369-9.001-0.056-12.426s-8.97-3.45-12.426-0.056l-7,7l-7-7c-3.456-3.394-9.001-3.369-12.426,0.056
			c-3.425,3.425-3.45,8.97-0.056,12.426l7,7l-7,7c-2.264,2.223-3.16,5.49-2.348,8.556c0.812,3.067,3.207,5.462,6.274,6.274
			C80.2,88.849,83.466,87.953,85.689,85.689z"/>
		<path style="fill:#802D40;" d="M169.551,108.518c-1.655-1.656-3.9-2.586-6.241-2.586c-2.341,0-4.586,0.93-6.241,2.586l-7,7l-7-7
			c-3.458-3.381-8.993-3.35-12.413,0.07c-3.42,3.42-3.451,8.955-0.069,12.413l7,7l-7,7c-2.264,2.223-3.16,5.49-2.348,8.556
			s3.207,5.462,6.274,6.274c3.067,0.812,6.333-0.085,8.556-2.348l7-7l7,7c3.456,3.394,9.001,3.369,12.426-0.056
			c3.425-3.425,3.45-8.97,0.056-12.426l-7-7l7-7c1.656-1.655,2.586-3.9,2.586-6.241
			C172.137,112.418,171.207,110.173,169.551,108.518z"/>
		<path style="fill:#802D40;" d="M108.518,179.138l-7,7l-7-7c-3.456-3.394-9.001-3.369-12.426,0.056
			c-3.425,3.425-3.45,8.97-0.056,12.426l8.828,8.828c2.794,2.921,7.275,3.432,10.655,1.214c3.38,2.218,7.861,1.708,10.655-1.214
			L121,191.62c3.394-3.456,3.369-9.001-0.056-12.426C117.518,175.77,111.973,175.744,108.518,179.138z"/>
		<path style="fill:#802D40;" d="M205.621,179.138l-7,7l-7-7c-3.456-3.394-9.001-3.369-12.426,0.056
			c-3.425,3.425-3.45,8.97-0.056,12.426l8.828,8.828c2.794,2.921,7.275,3.432,10.655,1.214c3.38,2.218,7.861,1.708,10.655-1.214
			l8.828-8.828c3.394-3.456,3.369-9.001-0.056-12.426C214.622,175.77,209.077,175.744,205.621,179.138z"/>
		<path style="fill:#802D40;" d="M226.931,46.724c-1.655-1.656-3.9-2.586-6.241-2.586c-2.341,0-4.586,0.93-6.241,2.586l-7,7l-7-7
			c-3.458-3.381-8.993-3.35-12.413,0.07c-3.42,3.42-3.451,8.955-0.069,12.413l7,7l-7,7c-2.264,2.223-3.16,5.49-2.348,8.556
			c0.812,3.067,3.207,5.462,6.274,6.274c3.067,0.812,6.333-0.085,8.556-2.348l7-7l7,7c3.456,3.394,9.001,3.369,12.426-0.056
			c3.425-3.425,3.45-8.97,0.056-12.426l-7-7l7-7c1.656-1.655,2.586-3.9,2.586-6.241C229.517,50.625,228.586,48.379,226.931,46.724z"
			/>
		<path style="fill:#802D40;" d="M297.551,85.689l7-7l7,7c3.456,3.394,9.001,3.369,12.426-0.056c3.425-3.425,3.45-8.97,0.056-12.426
			l-7-7l7-7c3.394-3.456,3.369-9.001-0.056-12.426s-8.97-3.45-12.426-0.056l-7,7l-7-7c-3.456-3.394-9.001-3.369-12.426,0.056
			s-3.45,8.97-0.056,12.426l7,7l-7,7c-2.264,2.223-3.16,5.49-2.348,8.556c0.812,3.067,3.207,5.462,6.274,6.274
			C292.062,88.849,295.329,87.953,297.551,85.689z"/>
		<path style="fill:#802D40;" d="M381.414,108.518c-1.655-1.656-3.9-2.586-6.241-2.586s-4.586,0.93-6.241,2.586l-7,7l-7-7
			c-3.458-3.381-8.993-3.35-12.413,0.07c-3.42,3.42-3.451,8.955-0.069,12.413l7,7l-7,7c-2.264,2.223-3.16,5.49-2.348,8.556
			c0.812,3.067,3.207,5.462,6.274,6.274c3.067,0.812,6.333-0.085,8.556-2.348l7-7l7,7c3.456,3.394,9.001,3.369,12.426-0.056
			s3.45-8.97,0.056-12.426l-7-7l7-7c1.656-1.655,2.586-3.9,2.586-6.241C383.999,112.418,383.069,110.173,381.414,108.518z"/>
		<path style="fill:#802D40;" d="M320.38,179.138l-7,7l-7-7c-3.456-3.394-9.001-3.369-12.426,0.056
			c-3.425,3.425-3.45,8.97-0.056,12.426l8.828,8.828c2.794,2.921,7.275,3.432,10.655,1.214c3.38,2.218,7.861,1.708,10.655-1.214
			l8.828-8.828c3.394-3.456,3.369-9.001-0.056-12.426C329.381,175.77,323.835,175.744,320.38,179.138z"/>
		<path style="fill:#802D40;" d="M417.483,179.138l-7,7l-7-7c-3.456-3.394-9.001-3.369-12.426,0.056
			c-3.425,3.425-3.45,8.97-0.056,12.426l8.828,8.828c2.794,2.921,7.275,3.432,10.655,1.214c3.38,2.218,7.861,1.708,10.655-1.214
			l8.828-8.828c3.394-3.456,3.369-9.001-0.056-12.426C426.484,175.77,420.939,175.744,417.483,179.138z"/>
		<path style="fill:#802D40;" d="M431.793,66.207l7-7c3.41-3.453,3.392-9.012-0.039-12.443s-8.99-3.449-12.443-0.039l-7,7l-7-7
			c-3.456-3.394-9.001-3.369-12.426,0.056c-3.425,3.425-3.45,8.97-0.056,12.426l7,7l-7,7c-2.263,2.223-3.16,5.49-2.348,8.556
			c0.812,3.067,3.207,5.462,6.274,6.274c3.067,0.812,6.333-0.085,8.556-2.348l7-7l7,7c3.456,3.394,9.001,3.369,12.426-0.056
			c3.425-3.425,3.45-8.97,0.056-12.426L431.793,66.207z"/>
		<path style="fill:#802D40;" d="M17.655,291.31h476.69c9.751,0,17.655,7.905,17.655,17.655v35.31
			c0,9.751-7.905,17.655-17.655,17.655H17.655C7.904,361.931,0,354.027,0,344.276v-35.31C0,299.215,7.904,291.31,17.655,291.31z"/>
	</g>
	<g>
		<path style="fill:#E6E7E8;" d="M97.103,194.207h105.931c19.501,0,35.31,15.809,35.31,35.31v61.793H61.793v-61.793
			C61.793,210.016,77.602,194.207,97.103,194.207z"/>
		<path style="fill:#E6E7E8;" d="M308.966,194.207h105.931c19.501,0,35.31,15.809,35.31,35.31v61.793H273.655v-61.793
			C273.655,210.016,289.464,194.207,308.966,194.207z"/>
	</g>
</g>
<g>
</g>
<g>
</g>
<g>
</g>
<g>
</g>
<g>
</g>
<g>
</g>
<g>
</g>
<g>
</g>
<g>
</g>
<g>
</g>
<g>
</g>
<g>
</g>
<g>
</g>
<g>
</g>
<g>
</g>
</svg>
