<?xml version="1.0" encoding="iso-8859-1"?>
<!-- Generator: Adobe Illustrator 19.0.0, SVG Export Plug-In . SVG Version: 6.00 Build 0)  -->
<svg version="1.1" id="Capa_1" xmlns="http://www.w3.org/2000/svg" xmlns:xlink="http://www.w3.org/1999/xlink" x="0px" y="0px"
	 viewBox="0 0 512 512" style="enable-background:new 0 0 512 512;" xml:space="preserve">
<g>
	<path style="fill:#CC6F56;" d="M512,220.69c0-14.626-11.857-26.483-26.483-26.483v-70.621c0.003-9.366-3.717-18.349-10.339-24.971
		c-6.623-6.623-15.605-10.342-24.971-10.339h-79.448c-9.366-0.003-18.349,3.717-24.971,10.339
		c-6.623,6.623-10.342,15.605-10.339,24.971c0-19.501-15.809-35.31-35.31-35.31h-88.276c-19.501,0-35.31,15.809-35.31,35.31
		c0.003-9.366-3.717-18.349-10.339-24.971c-6.623-6.623-15.605-10.342-24.971-10.339H61.793c-19.509,0-35.31,15.801-35.31,48.552
		v57.379C11.857,194.207,0,206.064,0,220.69v167.724h8.828v17.655c0,9.751,7.904,17.655,17.655,17.655h26.483
		c9.751,0,17.655-7.905,17.655-17.655v-17.655h370.759v17.655c0,9.751,7.905,17.655,17.655,17.655h26.483
		c9.751,0,17.655-7.905,17.655-17.655v-17.655H512V220.69z"/>
	<g>
		<path style="fill:#804537;" d="M8.828,344.276h61.793v61.793c0,9.751-7.904,17.655-17.655,17.655H26.483
			c-9.751,0-17.655-7.905-17.655-17.655V344.276z"/>
		<path style="fill:#804537;" d="M441.379,344.276h61.793v61.793c0,9.751-7.905,17.655-17.655,17.655h-26.483
			c-9.751,0-17.655-7.905-17.655-17.655V344.276z"/>
	</g>
	<g>
		<path style="fill:#C2615F;" d="M176.552,273.655V123.586c0-19.501,15.809-35.31,35.31-35.31h88.276
			c19.501,0,35.31,15.809,35.31,35.31v150.069H176.552z"/>
		<path style="fill:#C2615F;" d="M26.483,194.207c14.626,0,26.483,11.857,26.483,26.483v167.724H0V220.69
			C0,206.064,11.857,194.207,26.483,194.207z"/>
		<path style="fill:#C2615F;" d="M485.517,194.207c14.626,0,26.483,11.857,26.483,26.483v167.724h-52.966V220.69
			C459.034,206.064,470.891,194.207,485.517,194.207z"/>
	</g>
	<path style="fill:#F09372;" d="M52.966,264.828c0-14.626,11.857-26.483,26.483-26.483h70.621c0.883,0,1.854,0.088,2.737,0.177
		c13.505,1.353,23.778,12.734,23.746,26.306l0,44.138H52.966V264.828z"/>
	<path style="fill:#F0785A;" d="M176.552,264.828c0-14.626,11.857-26.483,26.483-26.483h105.931c0.883,0,1.854,0.088,2.737,0.177
		c13.505,1.353,23.778,12.734,23.746,26.306l0,44.138H176.552V264.828z"/>
	<path style="fill:#F09372;" d="M335.448,264.828c0-14.626,11.857-26.483,26.483-26.483h70.621c0.883,0,1.854,0.088,2.737,0.177
		c13.505,1.353,23.778,12.734,23.746,26.306l0,44.138H335.448V264.828z"/>
	<polygon style="fill:#CC6F56;" points="335.448,308.966 459.034,308.966 459.034,388.414 335.448,388.414 176.552,388.414 
		52.966,388.414 52.966,308.966 176.552,308.966 	"/>
</g>
<g>
</g>
<g>
</g>
<g>
</g>
<g>
</g>
<g>
</g>
<g>
</g>
<g>
</g>
<g>
</g>
<g>
</g>
<g>
</g>
<g>
</g>
<g>
</g>
<g>
</g>
<g>
</g>
<g>
</g>
</svg>
