<?xml version="1.0" encoding="iso-8859-1"?>
<!-- Generator: Adobe Illustrator 19.0.0, SVG Export Plug-In . SVG Version: 6.00 Build 0)  -->
<svg version="1.1" id="Capa_1" xmlns="http://www.w3.org/2000/svg" xmlns:xlink="http://www.w3.org/1999/xlink" x="0px" y="0px"
	 viewBox="0 0 512 512" style="enable-background:new 0 0 512 512;" xml:space="preserve">
<g>
	<path style="fill:#D75E72;" d="M494.345,379.586V70.621c-18.731,0.005-36.697-7.434-49.942-20.679
		C431.158,36.697,423.719,18.731,423.724,0H88.276c0.005,18.731-7.434,36.697-20.679,49.942S36.387,70.626,17.655,70.621v308.966
		H494.345z"/>
	<g>
		<path style="fill:#AF8066;" d="M17.655,414.897h35.31v88.276c0,4.875-3.952,8.828-8.828,8.828H26.483
			c-4.875,0-8.828-3.952-8.828-8.828V414.897z"/>
		<path style="fill:#AF8066;" d="M459.034,414.897h35.31v88.276c0,4.875-3.952,8.828-8.828,8.828h-17.655
			c-4.875,0-8.828-3.952-8.828-8.828V414.897z"/>
	</g>
	<path style="fill:#805333;" d="M512,353.103v70.621c-0.029,9.739-7.916,17.627-17.655,17.655H17.655
		C7.916,441.351,0.029,433.463,0,423.724v-70.621c0.028-9.739,7.916-17.627,17.655-17.655h28.513
		c7.307,0.119,14.314-2.903,19.244-8.298c17.92-20.392,100.37-35.84,199.415-35.84s181.495,15.448,199.415,35.84
		c4.93,5.395,11.937,8.417,19.244,8.298h10.858C504.084,335.477,511.972,343.365,512,353.103z"/>
	<ellipse style="fill:#CB8252;" cx="256" cy="366.345" rx="167.724" ry="39.724"/>
	<g>
		<path style="fill:#E6E7E8;" d="M97.103,185.379H220.69c19.501,0,35.31,15.809,35.31,35.31V256H61.793v-35.31
			C61.793,201.188,77.602,185.379,97.103,185.379z"/>
		<path style="fill:#E6E7E8;" d="M291.31,185.379h123.586c19.501,0,35.31,15.809,35.31,35.31V256H256v-35.31
			C256,201.188,271.809,185.379,291.31,185.379z"/>
	</g>
	<path style="fill:#FB7B76;" d="M459.034,141.241c-2.341,0.001-4.587-0.929-6.243-2.585c-1.656-1.656-2.585-3.901-2.585-6.243
		v-26.487c-27.844-11.783-50.005-33.945-61.789-61.789H123.582c-11.781,27.845-33.943,50.008-61.789,61.789v26.487
		c0,4.875-3.952,8.828-8.828,8.828s-8.828-3.952-8.828-8.828V99.879c-0.001-3.739,2.355-7.072,5.879-8.319
		c27.577-9.913,49.286-31.622,59.198-59.198c1.247-3.525,4.58-5.88,8.319-5.879h276.931c3.739-0.001,7.072,2.355,8.319,5.879
		c9.914,27.576,31.623,49.284,59.198,59.198c3.524,1.248,5.879,4.581,5.879,8.319v32.535c0.001,2.341-0.929,4.587-2.585,6.243
		C463.622,140.312,461.376,141.242,459.034,141.241z"/>
	<path style="fill:#CC4B4C;" d="M494.345,291.31v44.138h-10.858c-7.307,0.119-14.314-2.903-19.244-8.298
		c-17.92-20.392-100.37-35.84-199.415-35.84S83.332,306.759,65.412,327.15c-4.93,5.395-11.937,8.417-19.244,8.298H17.655V291.31
		c-0.003-9.366,3.717-18.349,10.339-24.971C34.617,259.717,43.6,255.997,52.966,256h406.069c9.366-0.003,18.349,3.717,24.971,10.339
		C490.628,272.962,494.347,281.945,494.345,291.31z"/>
</g>
<g>
</g>
<g>
</g>
<g>
</g>
<g>
</g>
<g>
</g>
<g>
</g>
<g>
</g>
<g>
</g>
<g>
</g>
<g>
</g>
<g>
</g>
<g>
</g>
<g>
</g>
<g>
</g>
<g>
</g>
</svg>
