<?xml version="1.0" encoding="iso-8859-1"?>
<!-- Generator: Adobe Illustrator 19.0.0, SVG Export Plug-In . SVG Version: 6.00 Build 0)  -->
<svg version="1.1" id="Capa_1" xmlns="http://www.w3.org/2000/svg" xmlns:xlink="http://www.w3.org/1999/xlink" x="0px" y="0px"
	 viewBox="0 0 512 512" style="enable-background:new 0 0 512 512;" xml:space="preserve">
<g>
	<path style="fill:#556080;" d="M488.165,191.735l13.595-81.479c2.549-15.361-1.783-31.067-11.846-42.949
		c-10.064-11.883-24.842-18.741-40.413-18.755H62.499c-15.571,0.014-30.35,6.873-40.413,18.755S7.691,94.895,10.24,110.257
		l13.594,81.479L52.966,384h406.069L488.165,191.735z"/>
	<g>
		<path style="fill:#AF8066;" d="M8.828,410.483h88.276v35.31c0,9.751-7.904,17.655-17.655,17.655H26.483
			c-9.751,0-17.655-7.905-17.655-17.655V410.483z"/>
		<path style="fill:#AF8066;" d="M414.897,410.483h88.276v35.31c0,9.751-7.905,17.655-17.655,17.655h-52.966
			c-9.751,0-17.655-7.905-17.655-17.655V410.483z"/>
	</g>
	<g>
		<path style="fill:#8697CB;" d="M35.31,189.793c19.501,0,35.31,15.809,35.31,35.31v203.034H0V225.103
			C0,205.602,15.809,189.793,35.31,189.793z"/>
		<path style="fill:#8697CB;" d="M476.69,189.793c19.501,0,35.31,15.809,35.31,35.31v203.034h-70.621V225.103
			C441.379,205.602,457.188,189.793,476.69,189.793z"/>
	</g>
	<rect x="70.621" y="348.69" style="fill:#556080;" width="370.759" height="79.448"/>
	<g>
		<path style="fill:#8697CB;" d="M256,304.552l0,44.138H70.621l0-44.138c-0.009-7.027,2.778-13.768,7.746-18.736
			s11.71-7.756,18.736-7.746h132.414c7.027-0.009,13.768,2.778,18.736,7.746C253.222,290.784,256.009,297.525,256,304.552z"/>
		<path style="fill:#8697CB;" d="M441.379,304.552v44.138H256l0-44.138c-0.009-7.027,2.778-13.768,7.746-18.736
			c4.969-4.969,11.71-7.756,18.737-7.746h132.414c7.027-0.009,13.768,2.778,18.737,7.746
			C438.602,290.784,441.389,297.525,441.379,304.552z"/>
		<path style="fill:#8697CB;" d="M114.759,128c-4.875,0-8.828-3.952-8.828-8.828v-8.828c0-4.875,3.952-8.828,8.828-8.828
			s8.828,3.952,8.828,8.828v8.828C123.586,124.048,119.634,128,114.759,128z"/>
		<path style="fill:#8697CB;" d="M158.897,172.138c-4.875,0-8.828-3.952-8.828-8.828v-8.828c0-4.875,3.952-8.828,8.828-8.828
			s8.828,3.952,8.828,8.828v8.828C167.724,168.186,163.772,172.138,158.897,172.138z"/>
		<path style="fill:#8697CB;" d="M203.034,128c-4.875,0-8.828-3.952-8.828-8.828v-8.828c0-4.875,3.952-8.828,8.828-8.828
			s8.828,3.952,8.828,8.828v8.828C211.862,124.048,207.91,128,203.034,128z"/>
		<path style="fill:#8697CB;" d="M308.966,128c-4.875,0-8.828-3.952-8.828-8.828v-8.828c0-4.875,3.952-8.828,8.828-8.828
			s8.828,3.952,8.828,8.828v8.828C317.793,124.048,313.841,128,308.966,128z"/>
		<path style="fill:#8697CB;" d="M353.103,172.138c-4.875,0-8.828-3.952-8.828-8.828v-8.828c0-4.875,3.952-8.828,8.828-8.828
			s8.828,3.952,8.828,8.828v8.828C361.931,168.186,357.979,172.138,353.103,172.138z"/>
		<path style="fill:#8697CB;" d="M397.241,128c-4.875,0-8.828-3.952-8.828-8.828v-8.828c0-4.875,3.952-8.828,8.828-8.828
			c4.875,0,8.828,3.952,8.828,8.828v8.828C406.069,124.048,402.117,128,397.241,128z"/>
		<path style="fill:#8697CB;" d="M114.759,216.276c-4.875,0-8.828-3.952-8.828-8.828v-8.828c0-4.875,3.952-8.828,8.828-8.828
			s8.828,3.952,8.828,8.828v8.828C123.586,212.324,119.634,216.276,114.759,216.276z"/>
		<path style="fill:#8697CB;" d="M203.034,216.276c-4.875,0-8.828-3.952-8.828-8.828v-8.828c0-4.875,3.952-8.828,8.828-8.828
			s8.828,3.952,8.828,8.828v8.828C211.862,212.324,207.91,216.276,203.034,216.276z"/>
		<path style="fill:#8697CB;" d="M308.966,216.276c-4.875,0-8.828-3.952-8.828-8.828v-8.828c0-4.875,3.952-8.828,8.828-8.828
			s8.828,3.952,8.828,8.828v8.828C317.793,212.324,313.841,216.276,308.966,216.276z"/>
		<path style="fill:#8697CB;" d="M397.241,216.276c-4.875,0-8.828-3.952-8.828-8.828v-8.828c0-4.875,3.952-8.828,8.828-8.828
			c4.875,0,8.828,3.952,8.828,8.828v8.828C406.069,212.324,402.117,216.276,397.241,216.276z"/>
		<path style="fill:#8697CB;" d="M176.552,286.72v17.832c0,4.875-3.952,8.828-8.828,8.828s-8.828-3.952-8.828-8.828v-17.655
			c-0.015-4.869-3.958-8.813-8.828-8.828h24.894C176.032,280.827,176.571,283.762,176.552,286.72z"/>
		<path style="fill:#8697CB;" d="M353.103,286.897v17.655c0,4.875-3.952,8.828-8.828,8.828s-8.828-3.952-8.828-8.828v-17.655
			c-0.015-4.869-3.958-8.813-8.828-8.828h24.894C352.584,280.888,353.122,283.881,353.103,286.897z"/>
	</g>
	<g>
		<path style="fill:#90BAE1;" d="M185.379,278.069c-4.797,0.025-8.706,3.856-8.828,8.651v17.832c0,4.875-3.952,8.828-8.828,8.828
			s-8.828-3.952-8.828-8.828v-17.655c-0.019-3.015,0.52-6.008,1.589-8.828H185.379z"/>
		<path style="fill:#90BAE1;" d="M361.931,278.069c-4.869,0.015-8.813,3.958-8.828,8.828v17.655c0,4.875-3.952,8.828-8.828,8.828
			s-8.828-3.952-8.828-8.828v-17.655c-0.019-3.015,0.52-6.008,1.589-8.828H361.931z"/>
	</g>
</g>
<g>
</g>
<g>
</g>
<g>
</g>
<g>
</g>
<g>
</g>
<g>
</g>
<g>
</g>
<g>
</g>
<g>
</g>
<g>
</g>
<g>
</g>
<g>
</g>
<g>
</g>
<g>
</g>
<g>
</g>
</svg>
