<?xml version="1.0" encoding="iso-8859-1"?>
<!-- Generator: Adobe Illustrator 19.0.0, SVG Export Plug-In . SVG Version: 6.00 Build 0)  -->
<svg version="1.1" id="Capa_1" xmlns="http://www.w3.org/2000/svg" xmlns:xlink="http://www.w3.org/1999/xlink" x="0px" y="0px"
	 viewBox="0 0 512.002 512.002" style="enable-background:new 0 0 512.002 512.002;" xml:space="preserve">
<g>
	<g>
		<path style="fill:#C2615F;" d="M88.278,459.035h88.276v35.31c0,9.751-7.904,17.655-17.655,17.655h-52.966
			c-9.751,0-17.655-7.905-17.655-17.655V459.035z"/>
		<path style="fill:#C2615F;" d="M335.45,459.035h88.276v35.31c0,9.751-7.904,17.655-17.655,17.655h-52.966
			c-9.751,0-17.655-7.905-17.655-17.655V459.035z"/>
		<path style="fill:#C2615F;" d="M503.174,273.656c0.019,35.601-26.47,65.647-61.793,70.091v97.633
			c0.009,7.027-2.778,13.768-7.746,18.737c-4.969,4.969-11.71,7.756-18.736,7.746H97.105c-7.027,0.009-13.768-2.778-18.737-7.746
			c-4.969-4.969-7.756-11.71-7.746-18.737v-97.633c-36.165-4.553-62.922-35.886-61.755-72.318s29.874-65.989,66.257-68.217
			c7.682,0.424,15.235,2.155,22.334,5.12c0.53,0.265,1.059,0.441,1.589,0.706L86.689,77.242
			c-1.868-19.803,4.703-39.475,18.097-54.179s32.369-23.078,52.259-23.062h197.914c19.89-0.016,38.865,8.357,52.259,23.062
			s19.965,34.377,18.097,54.179l-12.359,131.796c0.53-0.265,1.059-0.441,1.589-0.706c7.006-2.872,14.427-4.601,21.981-5.12h0.353
			C474.123,205.48,503.168,236.343,503.174,273.656z"/>
	</g>
	<g>
		<path style="fill:#804537;" d="M141.243,273.656l0,194.207l-52.966,0c-7.027,0.009-13.768-2.778-18.737-7.746
			c-4.969-4.969-7.756-11.71-7.746-18.737v-97.633c-36.994-4.667-63.989-37.286-61.654-74.501s33.194-66.204,70.482-66.211
			c1.501,0,3.001,0.088,4.502,0.177c7.682,0.424,15.235,2.155,22.334,5.12c0.53,0.265,1.059,0.441,1.589,0.706
			C124.703,220.279,141.268,245.646,141.243,273.656z"/>
		<path style="fill:#804537;" d="M512.002,273.656c0.019,35.601-26.47,65.647-61.793,70.091v97.633
			c0.009,7.027-2.778,13.768-7.746,18.736c-4.969,4.969-11.71,7.756-18.737,7.746l-52.966,0l0-194.207
			c-0.025-28.01,16.54-53.377,42.196-64.618c0.53-0.265,1.059-0.441,1.589-0.706c7.006-2.872,14.427-4.601,21.981-5.12h0.353
			c1.501-0.088,3.001-0.177,4.502-0.177c18.731-0.005,36.697,7.434,49.942,20.679C504.568,236.959,512.007,254.925,512.002,273.656z
			"/>
	</g>
	<path style="fill:#F09372;" d="M370.761,335.449v61.793H141.243l0-61.793c-0.009-7.027,2.778-13.768,7.746-18.737
		c4.969-4.969,11.71-7.756,18.737-7.746h176.552c7.027-0.009,13.768,2.778,18.737,7.746
		C367.983,321.681,370.77,328.423,370.761,335.449z"/>
	<rect x="141.243" y="397.242" style="fill:#CC6F56;" width="229.517" height="70.621"/>
	<g>
		<circle style="fill:#C2615F;" cx="70.623" cy="273.656" r="17.655"/>
		<circle style="fill:#C2615F;" cx="441.381" cy="273.656" r="17.655"/>
	</g>
	<g>
		<circle style="fill:#804537;" cx="167.726" cy="114.76" r="17.655"/>
		<circle style="fill:#804537;" cx="203.036" cy="203.035" r="17.655"/>
		<circle style="fill:#804537;" cx="308.967" cy="203.035" r="17.655"/>
		<circle style="fill:#804537;" cx="256.002" cy="114.76" r="17.655"/>
		<circle style="fill:#804537;" cx="344.278" cy="114.76" r="17.655"/>
	</g>
</g>
<g>
</g>
<g>
</g>
<g>
</g>
<g>
</g>
<g>
</g>
<g>
</g>
<g>
</g>
<g>
</g>
<g>
</g>
<g>
</g>
<g>
</g>
<g>
</g>
<g>
</g>
<g>
</g>
<g>
</g>
</svg>
