<?xml version="1.0" encoding="iso-8859-1"?>
<!-- Generator: Adobe Illustrator 19.0.0, SVG Export Plug-In . SVG Version: 6.00 Build 0)  -->
<svg version="1.1" id="Capa_1" xmlns="http://www.w3.org/2000/svg" xmlns:xlink="http://www.w3.org/1999/xlink" x="0px" y="0px"
	 viewBox="0 0 512 512" style="enable-background:new 0 0 512 512;" xml:space="preserve">
<g>
	<g>
		<path style="fill:#CB8252;" d="M114.759,450.207h35.31v52.966c0,4.875-3.952,8.828-8.828,8.828h-17.655
			c-4.875,0-8.828-3.952-8.828-8.828V450.207z"/>
		<path style="fill:#CB8252;" d="M361.931,450.207h35.31v52.966c0,4.875-3.952,8.828-8.828,8.828h-17.655
			c-4.875,0-8.828-3.952-8.828-8.828V450.207z"/>
	</g>
	<path style="fill:#805333;" d="M114.759,0h282.483c19.501,0,35.31,15.809,35.31,35.31v406.069c0,19.501-15.809,35.31-35.31,35.31
		H114.759c-19.501,0-35.31-15.809-35.31-35.31V35.31C79.448,15.809,95.257,0,114.759,0z"/>
	<rect x="256" y="397.241" style="fill:#804537;" width="141.241" height="44.138"/>
	<rect x="256" y="317.793" style="fill:#CC6F56;" width="141.241" height="44.138"/>
	<rect x="256" y="114.759" style="fill:#FAC176;" width="35.31" height="203.034"/>
	<g>
		<rect x="291.31" y="114.759" style="fill:#7D6599;" width="35.31" height="203.034"/>
		<rect x="361.931" y="114.759" style="fill:#7D6599;" width="35.31" height="203.034"/>
	</g>
	<rect x="256" y="35.31" style="fill:#804537;" width="141.241" height="44.138"/>
	<rect x="114.759" y="35.31" style="fill:#CB8252;" width="141.241" height="406.069"/>
	<circle style="fill:#805333;" cx="203.034" cy="247.172" r="17.655"/>
	<rect x="256" y="79.448" style="fill:#CC6F56;" width="141.241" height="35.31"/>
	<rect x="326.621" y="114.759" style="fill:#FAC176;" width="35.31" height="203.034"/>
	<rect x="256" y="361.931" style="fill:#CB8252;" width="141.241" height="35.31"/>
</g>
<g>
</g>
<g>
</g>
<g>
</g>
<g>
</g>
<g>
</g>
<g>
</g>
<g>
</g>
<g>
</g>
<g>
</g>
<g>
</g>
<g>
</g>
<g>
</g>
<g>
</g>
<g>
</g>
<g>
</g>
</svg>
