<?xml version="1.0" encoding="iso-8859-1"?>
<!-- Generator: Adobe Illustrator 19.0.0, SVG Export Plug-In . SVG Version: 6.00 Build 0)  -->
<svg version="1.1" id="Layer_1" xmlns="http://www.w3.org/2000/svg" xmlns:xlink="http://www.w3.org/1999/xlink" x="0px" y="0px"
	 viewBox="0 0 512 512" style="enable-background:new 0 0 512 512;" xml:space="preserve">
<path style="fill:#1F5985;" d="M429.139,0H107.593C93.99,0,82.86,11.131,82.86,24.734v12.368L410.589,512h18.551
	c27.208,0,49.469-22.261,49.469-49.469V49.469C478.608,22.261,456.347,0,429.139,0z"/>
<path style="fill:#269AF2;" d="M82.86,74.202c-13.604,0-24.734,11.131-24.734,24.734v388.329c0,13.604,11.131,24.734,24.734,24.734
	h327.73V62.07L82.86,74.202z"/>
<path style="fill:#1F5985;" d="M322.781,305.469H58.125c-13.604,0-24.734,11.131-24.734,24.734v49.469
	c0,13.604,11.131,24.734,24.734,24.734h264.657c13.604,0,24.734-11.131,24.734-24.734v-49.469
	C347.516,316.599,336.386,305.469,322.781,305.469z"/>
<path style="fill:#181818;" d="M410.588,37.102H82.86v37.102h327.73c10.245,0,18.551-8.306,18.551-18.551
	C429.139,45.407,420.834,37.102,410.588,37.102z"/>
<rect x="191.187" y="280.739" style="fill:#FF9E24;" width="49.464" height="148.407"/>
<g>
	<path style="fill:#FFB14D;" d="M240.655,441.507c-6.701,0-12.133-5.433-12.133-12.133V280.5c0-6.7,5.432-12.133,12.133-12.133
		s12.133,5.433,12.133,12.133v148.874C252.788,436.075,247.355,441.507,240.655,441.507z"/>
	<path style="fill:#FFB14D;" d="M191.19,441.507c-6.701,0-12.133-5.433-12.133-12.133V280.5c0-6.7,5.432-12.133,12.133-12.133
		s12.133,5.433,12.133,12.133v148.874C203.323,436.075,197.891,441.507,191.19,441.507z"/>
</g>
<g>
</g>
<g>
</g>
<g>
</g>
<g>
</g>
<g>
</g>
<g>
</g>
<g>
</g>
<g>
</g>
<g>
</g>
<g>
</g>
<g>
</g>
<g>
</g>
<g>
</g>
<g>
</g>
<g>
</g>
</svg>
