<?xml version="1.0" encoding="iso-8859-1"?>
<!-- Generator: Adobe Illustrator 19.0.0, SVG Export Plug-In . SVG Version: 6.00 Build 0)  -->
<svg version="1.1" id="Layer_1" xmlns="http://www.w3.org/2000/svg" xmlns:xlink="http://www.w3.org/1999/xlink" x="0px" y="0px"
	 viewBox="0 0 512 512" style="enable-background:new 0 0 512 512;" xml:space="preserve">
<g>
	<path style="fill:#181818;" d="M11.599,275.518C5.193,275.518,0,280.712,0,287.117c0,6.405,5.193,11.599,11.599,11.599h23.198
		v-23.198L11.599,275.518L11.599,275.518z"/>
	<path style="fill:#181818;" d="M263.456,465.944H372.81c28.178,0,54.656-8.997,74.559-25.335
		c19.237-15.791,29.833-36.489,29.833-58.279v-95.214c0-6.405,5.193-11.599,11.599-11.599h11.599
		c6.406,0,11.599,5.194,11.599,11.599c0,6.405-5.193,11.599-11.599,11.599v83.615c0,58.896-57.237,106.812-127.591,106.812H263.456
		V465.944L263.456,465.944z"/>
</g>
<path style="fill:#EE3840;" d="M274.642,448.546h-43.497c-16.015,0-28.998,12.983-28.998,28.998
	c0,16.015,12.983,28.998,28.998,28.998h43.497C290.657,506.541,290.657,448.546,274.642,448.546z"/>
<path style="fill:#3D3D3B;" d="M458.644,256.959h-23.198v-48.857c0-98.948-80.499-179.446-179.446-179.446
	S76.554,109.155,76.554,208.103v48.857H53.356v-48.857C53.356,96.365,144.262,5.459,256,5.459s202.644,90.906,202.644,202.644
	V256.959z"/>
<g>
	<path style="fill:#7A7674;" d="M23.198,287.117c0,23.061,18.695,41.757,41.757,41.757h23.198V245.36H64.955
		C41.894,245.36,23.198,264.056,23.198,287.117z"/>
	<path style="fill:#7A7674;" d="M447.045,245.36h-23.198v83.514h23.198c23.061,0,41.757-18.696,41.757-41.757
		S470.106,245.36,447.045,245.36z"/>
</g>
<g>
	<path style="fill:#181818;" d="M100.073,210.564c-19.217,0-34.797,15.579-34.797,34.797v83.514
		c0,19.217,15.579,34.797,34.797,34.797s34.797-15.58,34.797-34.797v-83.514C134.87,226.143,119.291,210.564,100.073,210.564z"/>
	<path style="fill:#181818;" d="M412.247,210.564c-19.219,0-34.797,15.579-34.797,34.797v83.514
		c0,19.217,15.579,34.797,34.797,34.797c19.219,0,34.797-15.58,34.797-34.797v-83.514
		C447.045,226.143,431.465,210.564,412.247,210.564z"/>
</g>
<g>
</g>
<g>
</g>
<g>
</g>
<g>
</g>
<g>
</g>
<g>
</g>
<g>
</g>
<g>
</g>
<g>
</g>
<g>
</g>
<g>
</g>
<g>
</g>
<g>
</g>
<g>
</g>
<g>
</g>
</svg>
