<?xml version="1.0" encoding="iso-8859-1"?>
<!-- Generator: Adobe Illustrator 19.0.0, SVG Export Plug-In . SVG Version: 6.00 Build 0)  -->
<svg version="1.1" id="Layer_1" xmlns="http://www.w3.org/2000/svg" xmlns:xlink="http://www.w3.org/1999/xlink" x="0px" y="0px"
	 viewBox="0 0 511.999 511.999" style="enable-background:new 0 0 511.999 511.999;" xml:space="preserve">
<g>
	<path style="fill:#524E4D;" d="M35.335,384.629H11.532c-3.417,0-6.658-1.515-8.849-4.138s-3.107-6.082-2.499-9.444l47.707-264.018
		C50.518,92.128,58.818,79.1,71.254,70.393c12.434-8.707,27.515-12.05,42.466-9.414c6.272,1.106,10.46,7.087,9.354,13.358
		c-1.106,6.272-7.088,10.459-13.358,9.354c-8.885-1.566-17.844,0.42-25.233,5.594c-7.388,5.174-12.32,12.915-13.886,21.798
		L25.335,361.566h10.001c6.369,0,11.532,5.163,11.532,11.532S41.704,384.629,35.335,384.629z"/>
	<path style="fill:#524E4D;" d="M500.469,384.629h-23.803c-6.368,0-11.532-5.163-11.532-11.532c0-6.369,5.164-11.532,11.532-11.532
		h10.001l-45.252-250.435c-3.243-18.386-20.793-30.677-39.129-27.439c-6.27,1.107-12.252-3.081-13.358-9.354
		c-1.107-6.271,3.081-12.252,9.353-13.358c14.949-2.637,30.03,0.707,42.466,9.414c12.434,8.707,20.735,21.736,23.371,36.685
		l47.698,263.968c0.607,3.364-0.308,6.822-2.499,9.444C507.128,383.113,503.886,384.629,500.469,384.629z"/>
	<path style="fill:#524E4D;" d="M285.646,384.629c-2.831,0-5.667-1.036-7.893-3.126c-5.731-5.383-13.456-8.348-21.752-8.348
		c-8.296,0-16.022,2.965-21.752,8.348c-4.643,4.36-11.94,4.132-16.3-0.51c-4.36-4.643-4.132-11.94,0.51-16.3
		c10.024-9.417,23.357-14.601,37.543-14.601c14.187,0,27.519,5.186,37.543,14.601c4.641,4.36,4.87,11.658,0.509,16.3
		C291.784,383.409,288.718,384.629,285.646,384.629z"/>
</g>
<g>
	<path style="fill:#BEC8D6;" d="M161.869,309.452l-32.296,52.82l-73.332,52.82c-13.088-11.497-20.907-26.107-20.907-41.998
		c0-37.155,42.759-67.263,95.516-67.263C141.711,305.831,152.148,307.111,161.869,309.452z"/>
	<path style="fill:#BEC8D6;" d="M205.458,331.096c13.077,11.508,20.895,26.107,20.895,41.998c0,37.155-42.759,67.275-95.504,67.275
		c-10.863,0-21.299-1.28-31.031-3.632l30.464-52.82L205.458,331.096z"/>
	<path style="fill:#BEC8D6;" d="M412.172,309.463l-29.831,52.814l-75.798,52.814c-13.077-11.508-20.895-26.107-20.895-41.998
		c0-37.155,42.759-67.263,95.504-67.263C392.015,305.831,402.451,307.111,412.172,309.463z"/>
	<path style="fill:#BEC8D6;" d="M455.773,331.096c13.077,11.508,20.895,26.107,20.895,41.998c0,37.155-42.759,67.275-95.516,67.275
		c-10.863,0-21.299-1.28-31.02-3.632l32.153-52.82L455.773,331.096z"/>
</g>
<g>
	<path style="fill:#EBEDEC;" d="M205.458,331.096l-105.64,105.64c-17.309-4.186-32.369-11.774-43.578-21.645l105.629-105.64
		C179.189,313.649,194.249,321.237,205.458,331.096z"/>
	<path style="fill:#EBEDEC;" d="M455.773,331.096l-105.64,105.64c-17.32-4.186-32.381-11.774-43.589-21.645l105.629-105.629
		C429.492,313.638,444.564,321.237,455.773,331.096z"/>
</g>
<g>
	<path style="fill:#524E4D;" d="M130.844,451.9c-27.867,0-54.21-7.745-74.175-21.807c-21.193-14.926-32.865-35.169-32.865-56.995
		c0-21.826,11.672-42.068,32.865-56.995c19.966-14.063,46.308-21.807,74.175-21.807s54.21,7.745,74.175,21.807
		c21.193,14.926,32.865,35.169,32.865,56.995c0,21.826-11.672,42.068-32.865,56.995C185.054,444.155,158.712,451.9,130.844,451.9z
		 M130.844,317.359c-23.155,0-44.782,6.25-60.895,17.599c-14.885,10.484-23.083,24.029-23.083,38.139
		c0,14.11,8.198,27.655,23.083,38.139c16.113,11.349,37.739,17.599,60.895,17.599s44.782-6.25,60.895-17.599
		c14.885-10.484,23.083-24.028,23.083-38.139c0-14.111-8.198-27.655-23.083-38.139C175.626,323.609,153.999,317.359,130.844,317.359
		z"/>
	<path style="fill:#524E4D;" d="M381.157,451.9c-27.867,0-54.21-7.745-74.175-21.807c-21.193-14.926-32.865-35.169-32.865-56.995
		c0-21.826,11.672-42.068,32.865-56.995c19.966-14.063,46.308-21.807,74.175-21.807s54.21,7.745,74.175,21.807
		c21.193,14.926,32.865,35.169,32.865,56.995c0,21.826-11.672,42.068-32.865,56.995C435.367,444.155,409.024,451.9,381.157,451.9z
		 M381.157,317.359c-23.155,0-44.782,6.25-60.895,17.599c-14.885,10.484-23.084,24.029-23.084,38.139
		c0,14.11,8.198,27.655,23.084,38.139c16.113,11.349,37.739,17.599,60.895,17.599s44.782-6.25,60.895-17.599
		c14.885-10.484,23.084-24.029,23.084-38.139c0-14.11-8.198-27.655-23.084-38.139C425.938,323.609,404.313,317.359,381.157,317.359z
		"/>
</g>
<g>
</g>
<g>
</g>
<g>
</g>
<g>
</g>
<g>
</g>
<g>
</g>
<g>
</g>
<g>
</g>
<g>
</g>
<g>
</g>
<g>
</g>
<g>
</g>
<g>
</g>
<g>
</g>
<g>
</g>
</svg>
