<?xml version="1.0" encoding="iso-8859-1"?>
<!-- Generator: Adobe Illustrator 19.0.0, SVG Export Plug-In . SVG Version: 6.00 Build 0)  -->
<svg version="1.1" id="Layer_1" xmlns="http://www.w3.org/2000/svg" xmlns:xlink="http://www.w3.org/1999/xlink" x="0px" y="0px"
	 viewBox="0 0 512 512" style="enable-background:new 0 0 512 512;" xml:space="preserve">
<path style="fill:#181818;" d="M305.873,0c-17.735,0-33.658,10.554-40.565,26.888l-4.513,10.67l21.337,9.024l4.512-10.669
	c3.276-7.744,10.823-12.746,19.229-12.746c10.448,0,19.341,7.795,20.686,18.129l22.974-2.991C346.69,16.469,327.92,0,305.873,0z"/>
<path style="fill:#FF8C00;" d="M276.009,31.351c-19.126-19.117-50.118-19.117-69.195,0l-30.777,30.816l69.111,69.145l30.86-30.808
	C295.101,81.429,295.101,50.427,276.009,31.351z"/>
<path style="fill:#FF9E24;" d="M256.752,119.729l-69.145-69.145c-41.945-15.742-90.903-6.997-124.495,26.612l167.012,167.012
	C263.731,210.615,272.477,161.666,256.752,119.729z"/>
<path style="fill:#FFB14D;" d="M366.067,29.601c-1.051-2.887-3.205-5.238-5.99-6.538c-2.785-1.297-5.969-1.438-8.857-0.386
	l-33.725,12.275c-6.011,2.188-9.111,8.835-6.924,14.846l70.721,194.305l-77.258,212.266c-1.28,3.516-0.782,7.434,1.336,10.519
	c2.119,3.085,5.597,4.955,9.338,5.024l37.94,0.693c0.072,0.001,0.142,0.002,0.213,0.002c4.861,0,9.216-3.04,10.884-7.622
	l74.535-204.784l0.001-32.189L366.067,29.601z M344.804,449.289l-13.449-0.246l69.333-190.489l11.906,4.485L344.804,449.289z
	 M400.692,229.667L336.304,52.76l11.954-4.351l64.338,176.766L400.692,229.667z"/>
<path style="fill:#FF8C00;" d="M377.308,244.107c0,19.779,16.003,35.783,35.782,35.783c19.779,0,35.798-16.003,35.798-35.783
	c0-19.739-16.019-35.79-35.798-35.79S377.308,224.368,377.308,244.107z"/>
<path style="fill:#181818;" d="M245.269,400.213c-6.398,0-11.584,5.187-11.584,11.584v48.533h23.167v-48.533
	C256.853,405.4,251.667,400.213,245.269,400.213z"/>
<polygon style="fill:#FF8C00;" points="169.082,437.856 122.363,500.416 408.833,500.416 408.833,437.856 "/>
<path style="fill:#3D3D3B;" d="M408.657,512H122.539c-6.398,0-11.584-5.187-11.584-11.584c0-6.397,5.186-11.584,11.584-11.584
	h286.118c6.398,0,11.584,5.187,11.584,11.584C420.241,506.813,415.055,512,408.657,512z"/>
<g>
</g>
<g>
</g>
<g>
</g>
<g>
</g>
<g>
</g>
<g>
</g>
<g>
</g>
<g>
</g>
<g>
</g>
<g>
</g>
<g>
</g>
<g>
</g>
<g>
</g>
<g>
</g>
<g>
</g>
</svg>
