<?xml version="1.0" encoding="iso-8859-1"?>
<!-- Generator: Adobe Illustrator 19.0.0, SVG Export Plug-In . SVG Version: 6.00 Build 0)  -->
<svg version="1.1" id="Layer_1" xmlns="http://www.w3.org/2000/svg" xmlns:xlink="http://www.w3.org/1999/xlink" x="0px" y="0px"
	 viewBox="0 0 512 512" style="enable-background:new 0 0 512 512;" xml:space="preserve">
<path style="fill:#269AF2;" d="M512,429.489c0,16.67-13.513,30.184-30.184,30.184H30.184C13.513,459.674,0,446.159,0,429.489V82.511
	c0-16.67,13.513-30.184,30.184-30.184h451.633c16.67,0,30.184,13.513,30.184,30.184L512,429.489L512,429.489z"/>
<circle style="fill:#FFFFFF;" cx="469.075" cy="256" r="12.133"/>
<polygon style="fill:#181818;" points="426.149,115.418 426.149,348.609 243.867,372.874 61.586,348.609 61.586,115.418 "/>
<path style="fill:#A2A9AF;" d="M305.744,244.148H181.991c-6.701,0-12.133-5.432-12.133-12.133c0-6.701,5.432-12.133,12.133-12.133
	h123.754c6.7,0,12.133,5.432,12.133,12.133C317.877,238.716,312.444,244.148,305.744,244.148z"/>
<rect x="61.586" y="348.609" style="fill:#4C5870;" width="364.563" height="47.973"/>
<g>
</g>
<g>
</g>
<g>
</g>
<g>
</g>
<g>
</g>
<g>
</g>
<g>
</g>
<g>
</g>
<g>
</g>
<g>
</g>
<g>
</g>
<g>
</g>
<g>
</g>
<g>
</g>
<g>
</g>
</svg>
